<svg xmlns="http://www.w3.org/2000/svg" xmlns:xlink="http://www.w3.org/1999/xlink" id="body_1" preserveAspectRatio="xMinYMin meet" viewBox="0 0 793 1123"><defs><clipPath id="1"><path clip-rule="evenodd" d="M0 842L0 -0.25L0 -0.25L595.5 -0.25L595.5 -0.25L595.5 842L595.5 842L0 842z" /></clipPath><clipPath id="2"><path clip-rule="evenodd" d="M8.874E-06 842L595.5 842L595.5 842L595.5 -0.25L595.5 -0.25L8.874E-06 -0.25z" /></clipPath><clipPath id="3"><path clip-rule="evenodd" d="M8.874E-06 842L595.5 842L595.5 842L595.5 -0.25L595.5 -0.25L8.874E-06 -0.25z" /></clipPath><clipPath id="4"><path clip-rule="evenodd" d="M8.874E-06 842L595.5 842L595.5 842L595.5 -0.25L595.5 -0.25L8.874E-06 -0.25z" /></clipPath><clipPath id="5"><path clip-rule="evenodd" d="M8.874E-06 842L595.5 842L595.5 842L595.5 -0.25L595.5 -0.25L8.874E-06 -0.25z" /></clipPath><clipPath id="6"><path clip-rule="evenodd" d="M8.874E-06 842L595.5 842L595.5 842L595.5 -0.25L595.5 -0.25L8.874E-06 -0.25z" /></clipPath><clipPath id="7"><path clip-rule="evenodd" d="M8.874E-06 842L595.5 842L595.5 842L595.5 -0.25L595.5 -0.25L8.874E-06 -0.25z" /></clipPath><clipPath id="8"><path clip-rule="evenodd" d="M8.874E-06 842L595.5 842L595.5 842L595.5 -0.25L595.5 -0.25L8.874E-06 -0.25z" /></clipPath><clipPath id="9"><path clip-rule="evenodd" d="M8.874E-06 842L595.5 842L595.5 842L595.5 -0.25L595.5 -0.25L8.874E-06 -0.25z" /></clipPath><clipPath id="10"><path clip-rule="evenodd" d="M8.874E-06 842L595.5 842L595.5 842L595.5 -0.25L595.5 -0.25L8.874E-06 -0.25z" /></clipPath><clipPath id="11"><path clip-rule="evenodd" d="M8.874E-06 842L595.5 842L595.5 842L595.5 -0.25L595.5 -0.25L8.874E-06 -0.25z" /></clipPath><clipPath id="12"><path clip-rule="evenodd" d="M8.874E-06 842L595.5 842L595.5 842L595.5 -0.25L595.5 -0.25L8.874E-06 -0.25z" /></clipPath><clipPath id="13"><path clip-rule="evenodd" d="M8.874E-06 842L595.5 842L595.5 842L595.5 -0.25L595.5 -0.25L8.874E-06 -0.25z" /></clipPath><clipPath id="14"><path clip-rule="evenodd" d="M8.874E-06 842L595.5 842L595.5 842L595.5 -0.25L595.5 -0.25L8.874E-06 -0.25z" /></clipPath><clipPath id="15"><path clip-rule="evenodd" d="M8.874E-06 842L595.5 842L595.5 842L595.5 -0.25L595.5 -0.25L8.874E-06 -0.25z" /></clipPath><clipPath id="16"><path clip-rule="evenodd" d="M8.874E-06 842L595.5 842L595.5 842L595.5 -0.25L595.5 -0.25L8.874E-06 -0.25z" /></clipPath><clipPath id="17"><path clip-rule="evenodd" d="M8.874E-06 842L595.5 842L595.5 842L595.5 -0.25L595.5 -0.25L8.874E-06 -0.25z" /></clipPath><clipPath id="18"><path clip-rule="evenodd" d="M8.874E-06 842L595.5 842L595.5 842L595.5 -0.25L595.5 -0.25L8.874E-06 -0.25z" /></clipPath><clipPath id="19"><path clip-rule="evenodd" d="M8.874E-06 842L595.5 842L595.5 842L595.5 -0.25L595.5 -0.25L8.874E-06 -0.25z" /></clipPath><clipPath id="20"><path clip-rule="evenodd" d="M8.874E-06 842L595.5 842L595.5 842L595.5 -0.25L595.5 -0.25L8.874E-06 -0.25z" /></clipPath><clipPath id="21"><path clip-rule="evenodd" d="M8.874E-06 842L595.5 842L595.5 842L595.5 -0.25L595.5 -0.25L8.874E-06 -0.25z" /></clipPath><clipPath id="22"><path clip-rule="evenodd" d="M8.874E-06 842L595.5 842L595.5 842L595.5 -0.25L595.5 -0.25L8.874E-06 -0.25z" /></clipPath><clipPath id="23"><path clip-rule="evenodd" d="M8.874E-06 842L595.5 842L595.5 842L595.5 -0.25L595.5 -0.25L8.874E-06 -0.25z" /></clipPath><clipPath id="24"><path clip-rule="evenodd" d="M8.874E-06 842L595.5 842L595.5 842L595.5 -0.25L595.5 -0.25L8.874E-06 -0.25z" /></clipPath><clipPath id="25"><path clip-rule="evenodd" d="M8.874E-06 842L595.5 842L595.5 842L595.5 -0.25L595.5 -0.25L8.874E-06 -0.25z" /></clipPath><clipPath id="26"><path clip-rule="evenodd" d="M8.874E-06 842L595.5 842L595.5 842L595.5 -0.25L595.5 -0.25L8.874E-06 -0.25z" /></clipPath><clipPath id="27"><path clip-rule="evenodd" d="M8.874E-06 842L595.5 842L595.5 842L595.5 -0.25L595.5 -0.25L8.874E-06 -0.25z" /></clipPath><clipPath id="28"><path clip-rule="evenodd" d="M8.874E-06 842L595.5 842L595.5 842L595.5 -0.25L595.5 -0.25L8.874E-06 -0.25z" /></clipPath><clipPath id="29"><path clip-rule="evenodd" d="M8.874E-06 842L595.5 842L595.5 842L595.5 -0.25L595.5 -0.25L8.874E-06 -0.25z" /></clipPath><clipPath id="30"><path clip-rule="evenodd" d="M8.874E-06 842L595.5 842L595.5 842L595.5 -0.25L595.5 -0.25L8.874E-06 -0.25z" /></clipPath><clipPath id="31"><path clip-rule="evenodd" d="M8.874E-06 842L595.5 842L595.5 842L595.5 -0.25L595.5 -0.25L8.874E-06 -0.25z" /></clipPath><clipPath id="32"><path clip-rule="evenodd" d="M8.874E-06 842L595.5 842L595.5 842L595.5 -0.25L595.5 -0.25L8.874E-06 -0.25z" /></clipPath><clipPath id="33"><path clip-rule="evenodd" d="M8.874E-06 842L595.5 842L595.5 842L595.5 -0.25L595.5 -0.25L8.874E-06 -0.25z" /></clipPath><clipPath id="34"><path clip-rule="evenodd" d="M8.874E-06 842L595.5 842L595.5 842L595.5 -0.25L595.5 -0.25L8.874E-06 -0.25z" /></clipPath><clipPath id="35"><path clip-rule="evenodd" d="M8.874E-06 842L595.5 842L595.5 842L595.5 -0.25L595.5 -0.25L8.874E-06 -0.25z" /></clipPath><clipPath id="36"><path clip-rule="evenodd" d="M8.874E-06 842L595.5 842L595.5 842L595.5 -0.25L595.5 -0.25L8.874E-06 -0.25z" /></clipPath><clipPath id="37"><path clip-rule="evenodd" d="M8.874E-06 842L595.5 842L595.5 842L595.5 -0.25L595.5 -0.25L8.874E-06 -0.25z" /></clipPath><clipPath id="38"><path clip-rule="evenodd" d="M8.874E-06 842L595.5 842L595.5 842L595.5 -0.25L595.5 -0.25L8.874E-06 -0.25z" /></clipPath><clipPath id="39"><path clip-rule="evenodd" d="M8.874E-06 842L595.5 842L595.5 842L595.5 -0.25L595.5 -0.25L8.874E-06 -0.25z" /></clipPath><clipPath id="40"><path clip-rule="evenodd" d="M8.874E-06 842L595.5 842L595.5 842L595.5 -0.25L595.5 -0.25L8.874E-06 -0.25z" /></clipPath><clipPath id="41"><path clip-rule="evenodd" d="M8.874E-06 842L595.5 842L595.5 842L595.5 -0.25L595.5 -0.25L8.874E-06 -0.25z" /></clipPath><clipPath id="42"><path clip-rule="evenodd" d="M8.874E-06 842L595.5 842L595.5 842L595.5 -0.25L595.5 -0.25L8.874E-06 -0.25z" /></clipPath><clipPath id="43"><path clip-rule="evenodd" d="M8.874E-06 842L595.5 842L595.5 842L595.5 -0.25L595.5 -0.25L8.874E-06 -0.25z" /></clipPath><clipPath id="44"><path clip-rule="evenodd" d="M8.874E-06 842L595.5 842L595.5 842L595.5 -0.25L595.5 -0.25L8.874E-06 -0.25z" /></clipPath><clipPath id="45"><path clip-rule="evenodd" d="M8.874E-06 842L595.5 842L595.5 842L595.5 -0.25L595.5 -0.25L8.874E-06 -0.25z" /></clipPath><clipPath id="46"><path clip-rule="evenodd" d="M8.874E-06 842L595.5 842L595.5 842L595.5 -0.25L595.5 -0.25L8.874E-06 -0.25z" /></clipPath><clipPath id="47"><path clip-rule="evenodd" d="M8.874E-06 842L595.5 842L595.5 842L595.5 -0.25L595.5 -0.25L8.874E-06 -0.25z" /></clipPath><clipPath id="48"><path clip-rule="evenodd" d="M8.874E-06 842L595.5 842L595.5 842L595.5 -0.25L595.5 -0.25L8.874E-06 -0.25z" /></clipPath><clipPath id="49"><path clip-rule="evenodd" d="M8.874E-06 842L595.5 842L595.5 842L595.5 -0.25L595.5 -0.25L8.874E-06 -0.25z" /></clipPath><clipPath id="50"><path clip-rule="evenodd" d="M8.874E-06 842L595.5 842L595.5 842L595.5 -0.25L595.5 -0.25L8.874E-06 -0.25z" /></clipPath><clipPath id="51"><path clip-rule="evenodd" d="M8.874E-06 842L595.5 842L595.5 842L595.5 -0.25L595.5 -0.25L8.874E-06 -0.25z" /></clipPath><clipPath id="52"><path clip-rule="evenodd" d="M8.874E-06 842L595.5 842L595.5 842L595.5 -0.25L595.5 -0.25L8.874E-06 -0.25z" /></clipPath><clipPath id="53"><path clip-rule="evenodd" d="M8.874E-06 842L595.5 842L595.5 842L595.5 -0.25L595.5 -0.25L8.874E-06 -0.25z" /></clipPath><clipPath id="54"><path clip-rule="evenodd" d="M8.874E-06 842L595.5 842L595.5 842L595.5 -0.25L595.5 -0.25L8.874E-06 -0.25z" /></clipPath><clipPath id="55"><path clip-rule="evenodd" d="M8.874E-06 842L595.5 842L595.5 842L595.5 -0.25L595.5 -0.25L8.874E-06 -0.25z" /></clipPath><clipPath id="56"><path clip-rule="evenodd" d="M8.874E-06 842L595.5 842L595.5 842L595.5 -0.25L595.5 -0.25L8.874E-06 -0.25z" /></clipPath><clipPath id="57"><path clip-rule="evenodd" d="M8.874E-06 842L595.5 842L595.5 842L595.5 -0.25L595.5 -0.25L8.874E-06 -0.25z" /></clipPath><clipPath id="58"><path clip-rule="evenodd" d="M8.874E-06 842L595.5 842L595.5 842L595.5 -0.25L595.5 -0.25L8.874E-06 -0.25z" /></clipPath><clipPath id="59"><path clip-rule="evenodd" d="M8.874E-06 842L595.5 842L595.5 842L595.5 -0.25L595.5 -0.25L8.874E-06 -0.25z" /></clipPath><clipPath id="60"><path clip-rule="evenodd" d="M0 605.75L366 605.75L366 605.75L366 434L366 434L0 434z" /></clipPath><clipPath id="61"><path clip-rule="evenodd" d="M-8.874E-06 746L595.5 746L595.5 746L595.5 683.75L595.5 683.75L-8.874E-06 683.75z" /></clipPath><clipPath id="62"><path clip-rule="evenodd" d="M72.1 372.08L516.65 372.08L516.65 372.08L516.65 149.13L516.65 149.13L72.1 149.13z" /></clipPath><clipPath id="63"><path clip-rule="evenodd" d="M81.1 164.9L127.675 164.9L127.675 164.9L127.675 149.875L127.675 149.875L81.1 149.875z" /></clipPath><clipPath id="64"><path clip-rule="evenodd" d="M81.1 164.9L127.675 164.9L127.675 164.9L127.675 149.875L127.675 149.875L81.1 149.875z" /></clipPath><clipPath id="65"><path clip-rule="evenodd" d="M81.1 164.9L127.675 164.9L127.675 164.9L127.675 149.875L127.675 149.875L81.1 149.875z" /></clipPath><clipPath id="66"><path clip-rule="evenodd" d="M128.43 164.9L191.505 164.9L191.505 164.9L191.505 149.875L191.505 149.875L128.43 149.875z" /></clipPath><clipPath id="67"><path clip-rule="evenodd" d="M128.43 164.9L191.505 164.9L191.505 164.9L191.505 149.875L191.505 149.875L128.43 149.875z" /></clipPath><clipPath id="68"><path clip-rule="evenodd" d="M128.43 164.9L191.505 164.9L191.505 164.9L191.505 149.875L191.505 149.875L128.43 149.875z" /></clipPath><clipPath id="69"><path clip-rule="evenodd" d="M192.25 164.9L449.08 164.9L449.08 164.9L449.08 149.875L449.08 149.875L192.25 149.875z" /></clipPath><clipPath id="70"><path clip-rule="evenodd" d="M192.25 164.9L449.08 164.9L449.08 164.9L449.08 149.875L449.08 149.875L192.25 149.875z" /></clipPath><clipPath id="71"><path clip-rule="evenodd" d="M192.25 164.9L449.08 164.9L449.08 164.9L449.08 149.875L449.08 149.875L192.25 149.875z" /></clipPath><clipPath id="72"><path clip-rule="evenodd" d="M449.83 164.9L507.655 164.9L507.655 164.9L507.655 149.875L507.655 149.875L449.83 149.875z" /></clipPath><clipPath id="73"><path clip-rule="evenodd" d="M449.83 164.9L507.655 164.9L507.655 164.9L507.655 149.875L507.655 149.875L449.83 149.875z" /></clipPath><clipPath id="74"><path clip-rule="evenodd" d="M449.83 164.9L507.655 164.9L507.655 164.9L507.655 149.875L507.655 149.875L449.83 149.875z" /></clipPath><clipPath id="75"><path clip-rule="evenodd" d="M81.1 181.43L127.675 181.43L127.675 181.43L127.675 165.655L127.675 165.655L81.1 165.655z" /></clipPath><clipPath id="76"><path clip-rule="evenodd" d="M81.1 181.43L127.675 181.43L127.675 181.43L127.675 165.655L127.675 165.655L81.1 165.655z" /></clipPath><clipPath id="77"><path clip-rule="evenodd" d="M81.1 181.43L127.675 181.43L127.675 181.43L127.675 165.655L127.675 165.655L81.1 165.655z" /></clipPath><clipPath id="78"><path clip-rule="evenodd" d="M128.43 181.43L191.505 181.43L191.505 181.43L191.505 165.655L191.505 165.655L128.43 165.655z" /></clipPath><clipPath id="79"><path clip-rule="evenodd" d="M128.43 181.43L191.505 181.43L191.505 181.43L191.505 165.655L191.505 165.655L128.43 165.655z" /></clipPath><clipPath id="80"><path clip-rule="evenodd" d="M128.43 181.43L191.505 181.43L191.505 181.43L191.505 165.655L191.505 165.655L128.43 165.655z" /></clipPath><clipPath id="81"><path clip-rule="evenodd" d="M192.25 181.43L449.08 181.43L449.08 181.43L449.08 165.655L449.08 165.655L192.25 165.655z" /></clipPath><clipPath id="82"><path clip-rule="evenodd" d="M192.25 181.43L449.08 181.43L449.08 181.43L449.08 165.655L449.08 165.655L192.25 165.655z" /></clipPath><clipPath id="83"><path clip-rule="evenodd" d="M192.25 181.43L449.08 181.43L449.08 181.43L449.08 165.655L449.08 165.655L192.25 165.655z" /></clipPath><clipPath id="84"><path clip-rule="evenodd" d="M449.83 181.43L507.655 181.43L507.655 181.43L507.655 165.655L507.655 165.655L449.83 165.655z" /></clipPath><clipPath id="85"><path clip-rule="evenodd" d="M449.83 181.43L507.655 181.43L507.655 181.43L507.655 165.655L507.655 165.655L449.83 165.655z" /></clipPath><clipPath id="86"><path clip-rule="evenodd" d="M81.1 212.95L127.675 212.95L127.675 212.95L127.675 182.175L127.675 182.175L81.1 182.175z" /></clipPath><clipPath id="87"><path clip-rule="evenodd" d="M81.1 212.95L127.675 212.95L127.675 212.95L127.675 182.175L127.675 182.175L81.1 182.175z" /></clipPath><clipPath id="88"><path clip-rule="evenodd" d="M81.1 212.95L127.675 212.95L127.675 212.95L127.675 182.175L127.675 182.175L81.1 182.175z" /></clipPath><clipPath id="89"><path clip-rule="evenodd" d="M128.43 212.95L191.505 212.95L191.505 212.95L191.505 182.175L191.505 182.175L128.43 182.175z" /></clipPath><clipPath id="90"><path clip-rule="evenodd" d="M128.43 212.95L191.505 212.95L191.505 212.95L191.505 182.175L191.505 182.175L128.43 182.175z" /></clipPath><clipPath id="91"><path clip-rule="evenodd" d="M128.43 212.95L191.505 212.95L191.505 212.95L191.505 182.175L191.505 182.175L128.43 182.175z" /></clipPath><clipPath id="92"><path clip-rule="evenodd" d="M192.25 212.95L449.08 212.95L449.08 212.95L449.08 182.175L449.08 182.175L192.25 182.175z" /></clipPath><clipPath id="93"><path clip-rule="evenodd" d="M192.25 212.95L449.08 212.95L449.08 212.95L449.08 182.175L449.08 182.175L192.25 182.175z" /></clipPath><clipPath id="94"><path clip-rule="evenodd" d="M192.25 212.95L449.08 212.95L449.08 212.95L449.08 182.175L449.08 182.175L192.25 182.175z" /></clipPath><clipPath id="95"><path clip-rule="evenodd" d="M192.25 212.95L449.08 212.95L449.08 212.95L449.08 182.175L449.08 182.175L192.25 182.175z" /></clipPath><clipPath id="96"><path clip-rule="evenodd" d="M449.83 212.95L507.655 212.95L507.655 212.95L507.655 182.175L507.655 182.175L449.83 182.175z" /></clipPath><clipPath id="97"><path clip-rule="evenodd" d="M449.83 212.95L507.655 212.95L507.655 212.95L507.655 182.175L507.655 182.175L449.83 182.175z" /></clipPath><clipPath id="98"><path clip-rule="evenodd" d="M449.83 212.95L507.655 212.95L507.655 212.95L507.655 182.175L507.655 182.175L449.83 182.175z" /></clipPath><clipPath id="99"><path clip-rule="evenodd" d="M449.83 212.95L507.655 212.95L507.655 212.95L507.655 182.175L507.655 182.175L449.83 182.175z" /></clipPath><clipPath id="100"><path clip-rule="evenodd" d="M81.1 244.48L127.675 244.48L127.675 244.48L127.675 213.705L127.675 213.705L81.1 213.705z" /></clipPath><clipPath id="101"><path clip-rule="evenodd" d="M81.1 244.48L127.675 244.48L127.675 244.48L127.675 213.705L127.675 213.705L81.1 213.705z" /></clipPath><clipPath id="102"><path clip-rule="evenodd" d="M81.1 244.48L127.675 244.48L127.675 244.48L127.675 213.705L127.675 213.705L81.1 213.705z" /></clipPath><clipPath id="103"><path clip-rule="evenodd" d="M128.43 244.48L191.505 244.48L191.505 244.48L191.505 213.705L191.505 213.705L128.43 213.705z" /></clipPath><clipPath id="104"><path clip-rule="evenodd" d="M128.43 244.48L191.505 244.48L191.505 244.48L191.505 213.705L191.505 213.705L128.43 213.705z" /></clipPath><clipPath id="105"><path clip-rule="evenodd" d="M128.43 244.48L191.505 244.48L191.505 244.48L191.505 213.705L191.505 213.705L128.43 213.705z" /></clipPath><clipPath id="106"><path clip-rule="evenodd" d="M192.25 244.48L449.08 244.48L449.08 244.48L449.08 213.705L449.08 213.705L192.25 213.705z" /></clipPath><clipPath id="107"><path clip-rule="evenodd" d="M192.25 244.48L449.08 244.48L449.08 244.48L449.08 213.705L449.08 213.705L192.25 213.705z" /></clipPath><clipPath id="108"><path clip-rule="evenodd" d="M192.25 244.48L449.08 244.48L449.08 244.48L449.08 213.705L449.08 213.705L192.25 213.705z" /></clipPath><clipPath id="109"><path clip-rule="evenodd" d="M192.25 244.48L449.08 244.48L449.08 244.48L449.08 213.705L449.08 213.705L192.25 213.705z" /></clipPath><clipPath id="110"><path clip-rule="evenodd" d="M449.83 244.48L507.655 244.48L507.655 244.48L507.655 213.705L507.655 213.705L449.83 213.705z" /></clipPath><clipPath id="111"><path clip-rule="evenodd" d="M449.83 244.48L507.655 244.48L507.655 244.48L507.655 213.705L507.655 213.705L449.83 213.705z" /></clipPath><clipPath id="112"><path clip-rule="evenodd" d="M449.83 244.48L507.655 244.48L507.655 244.48L507.655 213.705L507.655 213.705L449.83 213.705z" /></clipPath><clipPath id="113"><path clip-rule="evenodd" d="M449.83 244.48L507.655 244.48L507.655 244.48L507.655 213.705L507.655 213.705L449.83 213.705z" /></clipPath><clipPath id="114"><path clip-rule="evenodd" d="M81.1 276.75L127.675 276.75L127.675 276.75L127.675 245.225L127.675 245.225L81.1 245.225z" /></clipPath><clipPath id="115"><path clip-rule="evenodd" d="M81.1 276.75L127.675 276.75L127.675 276.75L127.675 245.225L127.675 245.225L81.1 245.225z" /></clipPath><clipPath id="116"><path clip-rule="evenodd" d="M81.1 276.75L127.675 276.75L127.675 276.75L127.675 245.225L127.675 245.225L81.1 245.225z" /></clipPath><clipPath id="117"><path clip-rule="evenodd" d="M128.43 276.75L191.505 276.75L191.505 276.75L191.505 245.225L191.505 245.225L128.43 245.225z" /></clipPath><clipPath id="118"><path clip-rule="evenodd" d="M128.43 276.75L191.505 276.75L191.505 276.75L191.505 245.225L191.505 245.225L128.43 245.225z" /></clipPath><clipPath id="119"><path clip-rule="evenodd" d="M128.43 276.75L191.505 276.75L191.505 276.75L191.505 245.225L191.505 245.225L128.43 245.225z" /></clipPath><clipPath id="120"><path clip-rule="evenodd" d="M192.25 276.75L449.08 276.75L449.08 276.75L449.08 245.225L449.08 245.225L192.25 245.225z" /></clipPath><clipPath id="121"><path clip-rule="evenodd" d="M192.25 276.75L449.08 276.75L449.08 276.75L449.08 245.225L449.08 245.225L192.25 245.225z" /></clipPath><clipPath id="122"><path clip-rule="evenodd" d="M192.25 276.75L449.08 276.75L449.08 276.75L449.08 245.225L449.08 245.225L192.25 245.225z" /></clipPath><clipPath id="123"><path clip-rule="evenodd" d="M449.83 276.75L507.655 276.75L507.655 276.75L507.655 245.225L507.655 245.225L449.83 245.225z" /></clipPath><clipPath id="124"><path clip-rule="evenodd" d="M449.83 276.75L507.655 276.75L507.655 276.75L507.655 245.225L507.655 245.225L449.83 245.225z" /></clipPath><clipPath id="125"><path clip-rule="evenodd" d="M449.83 276.75L507.655 276.75L507.655 276.75L507.655 245.225L507.655 245.225L449.83 245.225z" /></clipPath><clipPath id="126"><path clip-rule="evenodd" d="M449.83 276.75L507.655 276.75L507.655 276.75L507.655 245.225L507.655 245.225L449.83 245.225z" /></clipPath><clipPath id="127"><path clip-rule="evenodd" d="M81.1 308.28L127.675 308.28L127.675 308.28L127.675 276.755L127.675 276.755L81.1 276.755z" /></clipPath><clipPath id="128"><path clip-rule="evenodd" d="M81.1 308.28L127.675 308.28L127.675 308.28L127.675 276.755L127.675 276.755L81.1 276.755z" /></clipPath><clipPath id="129"><path clip-rule="evenodd" d="M81.1 308.28L127.675 308.28L127.675 308.28L127.675 276.755L127.675 276.755L81.1 276.755z" /></clipPath><clipPath id="130"><path clip-rule="evenodd" d="M128.43 308.28L191.505 308.28L191.505 308.28L191.505 276.755L191.505 276.755L128.43 276.755z" /></clipPath><clipPath id="131"><path clip-rule="evenodd" d="M128.43 308.28L191.505 308.28L191.505 308.28L191.505 276.755L191.505 276.755L128.43 276.755z" /></clipPath><clipPath id="132"><path clip-rule="evenodd" d="M128.43 308.28L191.505 308.28L191.505 308.28L191.505 276.755L191.505 276.755L128.43 276.755z" /></clipPath><clipPath id="133"><path clip-rule="evenodd" d="M192.25 308.28L449.08 308.28L449.08 308.28L449.08 276.755L449.08 276.755L192.25 276.755z" /></clipPath><clipPath id="134"><path clip-rule="evenodd" d="M192.25 308.28L449.08 308.28L449.08 308.28L449.08 276.755L449.08 276.755L192.25 276.755z" /></clipPath><clipPath id="135"><path clip-rule="evenodd" d="M192.25 308.28L449.08 308.28L449.08 308.28L449.08 276.755L449.08 276.755L192.25 276.755z" /></clipPath><clipPath id="136"><path clip-rule="evenodd" d="M449.83 308.28L507.655 308.28L507.655 308.28L507.655 276.755L507.655 276.755L449.83 276.755z" /></clipPath><clipPath id="137"><path clip-rule="evenodd" d="M449.83 308.28L507.655 308.28L507.655 308.28L507.655 276.755L507.655 276.755L449.83 276.755z" /></clipPath><clipPath id="138"><path clip-rule="evenodd" d="M449.83 308.28L507.655 308.28L507.655 308.28L507.655 276.755L507.655 276.755L449.83 276.755z" /></clipPath><clipPath id="139"><path clip-rule="evenodd" d="M449.83 308.28L507.655 308.28L507.655 308.28L507.655 276.755L507.655 276.755L449.83 276.755z" /></clipPath><clipPath id="140"><path clip-rule="evenodd" d="M81.1 339.8L127.675 339.8L127.675 339.8L127.675 309.025L127.675 309.025L81.1 309.025z" /></clipPath><clipPath id="141"><path clip-rule="evenodd" d="M81.1 339.8L127.675 339.8L127.675 339.8L127.675 309.025L127.675 309.025L81.1 309.025z" /></clipPath><clipPath id="142"><path clip-rule="evenodd" d="M81.1 339.8L127.675 339.8L127.675 339.8L127.675 309.025L127.675 309.025L81.1 309.025z" /></clipPath><clipPath id="143"><path clip-rule="evenodd" d="M128.43 339.8L191.505 339.8L191.505 339.8L191.505 309.025L191.505 309.025L128.43 309.025z" /></clipPath><clipPath id="144"><path clip-rule="evenodd" d="M128.43 339.8L191.505 339.8L191.505 339.8L191.505 309.025L191.505 309.025L128.43 309.025z" /></clipPath><clipPath id="145"><path clip-rule="evenodd" d="M128.43 339.8L191.505 339.8L191.505 339.8L191.505 309.025L191.505 309.025L128.43 309.025z" /></clipPath><clipPath id="146"><path clip-rule="evenodd" d="M192.25 339.8L449.08 339.8L449.08 339.8L449.08 309.025L449.08 309.025L192.25 309.025z" /></clipPath><clipPath id="147"><path clip-rule="evenodd" d="M192.25 339.8L449.08 339.8L449.08 339.8L449.08 309.025L449.08 309.025L192.25 309.025z" /></clipPath><clipPath id="148"><path clip-rule="evenodd" d="M192.25 339.8L449.08 339.8L449.08 339.8L449.08 309.025L449.08 309.025L192.25 309.025z" /></clipPath><clipPath id="149"><path clip-rule="evenodd" d="M449.83 339.8L507.655 339.8L507.655 339.8L507.655 309.025L507.655 309.025L449.83 309.025z" /></clipPath><clipPath id="150"><path clip-rule="evenodd" d="M449.83 339.8L507.655 339.8L507.655 339.8L507.655 309.025L507.655 309.025L449.83 309.025z" /></clipPath><clipPath id="151"><path clip-rule="evenodd" d="M449.83 339.8L507.655 339.8L507.655 339.8L507.655 309.025L507.655 309.025L449.83 309.025z" /></clipPath><clipPath id="152"><path clip-rule="evenodd" d="M449.83 339.8L507.655 339.8L507.655 339.8L507.655 309.025L507.655 309.025L449.83 309.025z" /></clipPath><clipPath id="153"><path clip-rule="evenodd" d="M81.1 372.08L127.675 372.08L127.675 372.08L127.675 340.555L127.675 340.555L81.1 340.555z" /></clipPath><clipPath id="154"><path clip-rule="evenodd" d="M81.1 372.08L127.675 372.08L127.675 372.08L127.675 340.555L127.675 340.555L81.1 340.555z" /></clipPath><clipPath id="155"><path clip-rule="evenodd" d="M81.1 372.08L127.675 372.08L127.675 372.08L127.675 340.555L127.675 340.555L81.1 340.555z" /></clipPath><clipPath id="156"><path clip-rule="evenodd" d="M128.43 372.08L191.505 372.08L191.505 372.08L191.505 340.555L191.505 340.555L128.43 340.555z" /></clipPath><clipPath id="157"><path clip-rule="evenodd" d="M128.43 372.08L191.505 372.08L191.505 372.08L191.505 340.555L191.505 340.555L128.43 340.555z" /></clipPath><clipPath id="158"><path clip-rule="evenodd" d="M128.43 372.08L191.505 372.08L191.505 372.08L191.505 340.555L191.505 340.555L128.43 340.555z" /></clipPath><clipPath id="159"><path clip-rule="evenodd" d="M192.25 372.08L449.08 372.08L449.08 372.08L449.08 340.555L449.08 340.555L192.25 340.555z" /></clipPath><clipPath id="160"><path clip-rule="evenodd" d="M192.25 372.08L449.08 372.08L449.08 372.08L449.08 340.555L449.08 340.555L192.25 340.555z" /></clipPath><clipPath id="161"><path clip-rule="evenodd" d="M192.25 372.08L449.08 372.08L449.08 372.08L449.08 340.555L449.08 340.555L192.25 340.555z" /></clipPath><clipPath id="162"><path clip-rule="evenodd" d="M449.83 372.08L507.655 372.08L507.655 372.08L507.655 340.555L507.655 340.555L449.83 340.555z" /></clipPath><clipPath id="163"><path clip-rule="evenodd" d="M449.83 372.08L507.655 372.08L507.655 372.08L507.655 340.555L507.655 340.555L449.83 340.555z" /></clipPath><clipPath id="164"><path clip-rule="evenodd" d="M449.83 372.08L507.655 372.08L507.655 372.08L507.655 340.555L507.655 340.555L449.83 340.555z" /></clipPath><clipPath id="165"><path clip-rule="evenodd" d="M449.83 372.08L507.655 372.08L507.655 372.08L507.655 340.555L507.655 340.555L449.83 340.555z" /></clipPath><clipPath id="166"><path clip-rule="evenodd" d="M-4.765E-06 841.9998L595.5 841.9998L595.5 841.9998L595.5 -0.2501831L595.5 -0.2501831L-4.765E-06 -0.2501831z" /></clipPath></defs><g transform="matrix(1.333333 0 0 1.333333 0 0)"><g><g clip-path="url(#1)"><g clip-path="url(#2)"></g><g clip-path="url(#3)"></g><g clip-path="url(#4)"></g><g clip-path="url(#5)"></g><g clip-path="url(#6)"></g><g clip-path="url(#7)"></g><g clip-path="url(#8)"></g><g clip-path="url(#9)"></g><g clip-path="url(#10)"></g><g clip-path="url(#11)"></g><g clip-path="url(#12)"></g><g clip-path="url(#13)"></g><g clip-path="url(#14)"></g><g clip-path="url(#15)"></g><g clip-path="url(#16)"></g><g clip-path="url(#17)"></g><g clip-path="url(#18)"></g><g clip-path="url(#19)"></g><g clip-path="url(#20)"></g><g clip-path="url(#21)"></g><g clip-path="url(#22)"></g><g clip-path="url(#23)"></g><g clip-path="url(#24)"></g><g clip-path="url(#25)"></g><g clip-path="url(#26)"></g><g clip-path="url(#27)"></g><g clip-path="url(#28)"></g><g clip-path="url(#29)"></g><g clip-path="url(#30)"></g><g clip-path="url(#31)"></g><g clip-path="url(#32)"></g><g clip-path="url(#33)"></g><g clip-path="url(#34)"></g><g clip-path="url(#35)"></g><g clip-path="url(#36)"></g><g clip-path="url(#37)"></g><g clip-path="url(#38)"></g><g clip-path="url(#39)"></g><g clip-path="url(#40)"></g><g clip-path="url(#41)"></g><g clip-path="url(#42)"></g><g clip-path="url(#43)"></g><g clip-path="url(#44)"></g><g clip-path="url(#45)"></g><g clip-path="url(#46)"></g><g clip-path="url(#47)"></g><g clip-path="url(#48)"></g><g clip-path="url(#49)"></g><g clip-path="url(#50)"></g><g clip-path="url(#51)"></g><g clip-path="url(#52)"></g><g clip-path="url(#53)"></g><g clip-path="url(#54)"></g><g clip-path="url(#55)"></g><g clip-path="url(#56)"></g><g clip-path="url(#57)"></g><g clip-path="url(#58)"></g><g clip-path="url(#59)"></g><g clip-path="url(#60)"><g transform="matrix(0.3270987 0 0 0.3273931 90 439.1)"><g transform="matrix(1 0 0 1 0 0)"><image x="0" y="0" xlink:href="img_01.png" width="679" height="491" /></g></g></g><g clip-path="url(#61)"><g transform="matrix(0.3265306 0 0 0.3275974 158.32 688.08)"><g transform="matrix(1 0 0 1 0 0)"><image x="0" y="0" xlink:href="img_02.png" width="147" height="154" /></g></g></g><g clip-path="url(#62)"><g clip-path="url(#63)"><g clip-path="url(#64)"></g><g clip-path="url(#65)"></g></g><g clip-path="url(#66)"><g clip-path="url(#67)"></g><g clip-path="url(#68)"></g></g><g clip-path="url(#69)"><g clip-path="url(#70)"></g><g clip-path="url(#71)"></g></g><g clip-path="url(#72)"><g clip-path="url(#73)"></g><g clip-path="url(#74)"></g></g><path transform="matrix(1 0 0 -1 0 842)" d="M80.35 692.13L81.1 692.13L81.1 692.13L81.1 692.88L81.1 692.88L80.35 692.88z" stroke="none" fill="#000000" fill-rule="evenodd" /><path transform="matrix(1 0 0 -1 0 842)" d="M80.35 692.13L81.1 692.13L81.1 692.13L81.1 692.88L81.1 692.88L80.35 692.88z" stroke="none" fill="#000000" fill-rule="evenodd" /><path transform="matrix(1 0 0 -1 0 842)" d="M81.1 692.13L127.675 692.13L127.675 692.13L127.675 692.88L127.675 692.88L81.1 692.88z" stroke="none" fill="#000000" fill-rule="evenodd" /><path transform="matrix(1 0 0 -1 0 842)" d="M127.68 692.13L128.43 692.13L128.43 692.13L128.43 692.88L128.43 692.88L127.68 692.88z" stroke="none" fill="#000000" fill-rule="evenodd" /><path transform="matrix(1 0 0 -1 0 842)" d="M128.43 692.13L190.755 692.13L190.755 692.13L190.755 692.88L190.755 692.88L128.43 692.88z" stroke="none" fill="#000000" fill-rule="evenodd" /><path transform="matrix(1 0 0 -1 0 842)" d="M190.75 692.13L191.5 692.13L191.5 692.13L191.5 692.88L191.5 692.88L190.75 692.88z" stroke="none" fill="#000000" fill-rule="evenodd" /><path transform="matrix(1 0 0 -1 0 842)" d="M191.5 692.13L449.08 692.13L449.08 692.13L449.08 692.88L449.08 692.88L191.5 692.88z" stroke="none" fill="#000000" fill-rule="evenodd" /><path transform="matrix(1 0 0 -1 0 842)" d="M449.08 692.13L449.83 692.13L449.83 692.13L449.83 692.88L449.83 692.88L449.08 692.88z" stroke="none" fill="#000000" fill-rule="evenodd" /><path transform="matrix(1 0 0 -1 0 842)" d="M449.83 692.13L506.905 692.13L506.905 692.13L506.905 692.88L506.905 692.88L449.83 692.88z" stroke="none" fill="#000000" fill-rule="evenodd" /><path transform="matrix(1 0 0 -1 0 842)" d="M506.9 692.13L507.65 692.13L507.65 692.13L507.65 692.88L507.65 692.88L506.9 692.88z" stroke="none" fill="#000000" fill-rule="evenodd" /><path transform="matrix(1 0 0 -1 0 842)" d="M506.9 692.13L507.65 692.13L507.65 692.13L507.65 692.88L507.65 692.88L506.9 692.88z" stroke="none" fill="#000000" fill-rule="evenodd" /><path transform="matrix(1 0 0 -1 0 842)" d="M80.35 677.1L81.1 677.1L81.1 677.1L81.1 692.125L81.1 692.125L80.35 692.125z" stroke="none" fill="#000000" fill-rule="evenodd" /><path transform="matrix(1 0 0 -1 0 842)" d="M127.68 677.1L128.43 677.1L128.43 677.1L128.43 692.125L128.43 692.125L127.68 692.125z" stroke="none" fill="#000000" fill-rule="evenodd" /><path transform="matrix(1 0 0 -1 0 842)" d="M190.75 677.1L191.5 677.1L191.5 677.1L191.5 692.125L191.5 692.125L190.75 692.125z" stroke="none" fill="#000000" fill-rule="evenodd" /><path transform="matrix(1 0 0 -1 0 842)" d="M449.08 677.1L449.83 677.1L449.83 677.1L449.83 692.125L449.83 692.125L449.08 692.125z" stroke="none" fill="#000000" fill-rule="evenodd" /><path transform="matrix(1 0 0 -1 0 842)" d="M506.9 677.1L507.65 677.1L507.65 677.1L507.65 692.125L507.65 692.125L506.9 692.125z" stroke="none" fill="#000000" fill-rule="evenodd" /><g clip-path="url(#75)"><g clip-path="url(#76)"></g><g clip-path="url(#77)"></g></g><g clip-path="url(#78)"><g clip-path="url(#79)"></g><g clip-path="url(#80)"></g></g><g clip-path="url(#81)"><g clip-path="url(#82)"></g><g clip-path="url(#83)"></g></g><g clip-path="url(#84)"><g clip-path="url(#85)"></g></g><path transform="matrix(1 0 0 -1 0 842)" d="M80.35 676.35L81.1 676.35L81.1 676.35L81.1 677.1L81.1 677.1L80.35 677.1z" stroke="none" fill="#000000" fill-rule="evenodd" /><path transform="matrix(1 0 0 -1 0 842)" d="M81.1 676.35L127.675 676.35L127.675 676.35L127.675 677.1L127.675 677.1L81.1 677.1z" stroke="none" fill="#000000" fill-rule="evenodd" /><path transform="matrix(1 0 0 -1 0 842)" d="M127.68 676.35L128.43 676.35L128.43 676.35L128.43 677.1L128.43 677.1L127.68 677.1z" stroke="none" fill="#000000" fill-rule="evenodd" /><path transform="matrix(1 0 0 -1 0 842)" d="M128.43 676.35L190.755 676.35L190.755 676.35L190.755 677.1L190.755 677.1L128.43 677.1z" stroke="none" fill="#000000" fill-rule="evenodd" /><path transform="matrix(1 0 0 -1 0 842)" d="M190.75 676.35L191.5 676.35L191.5 676.35L191.5 677.1L191.5 677.1L190.75 677.1z" stroke="none" fill="#000000" fill-rule="evenodd" /><path transform="matrix(1 0 0 -1 0 842)" d="M191.5 676.35L449.08 676.35L449.08 676.35L449.08 677.1L449.08 677.1L191.5 677.1z" stroke="none" fill="#000000" fill-rule="evenodd" /><path transform="matrix(1 0 0 -1 0 842)" d="M449.08 676.35L449.83 676.35L449.83 676.35L449.83 677.1L449.83 677.1L449.08 677.1z" stroke="none" fill="#000000" fill-rule="evenodd" /><path transform="matrix(1 0 0 -1 0 842)" d="M449.83 676.35L506.905 676.35L506.905 676.35L506.905 677.1L506.905 677.1L449.83 677.1z" stroke="none" fill="#000000" fill-rule="evenodd" /><path transform="matrix(1 0 0 -1 0 842)" d="M506.9 676.35L507.65 676.35L507.65 676.35L507.65 677.1L507.65 677.1L506.9 677.1z" stroke="none" fill="#000000" fill-rule="evenodd" /><path transform="matrix(1 0 0 -1 0 842)" d="M80.35 660.57L81.1 660.57L81.1 660.57L81.1 676.345L81.1 676.345L80.35 676.345z" stroke="none" fill="#000000" fill-rule="evenodd" /><path transform="matrix(1 0 0 -1 0 842)" d="M127.68 660.57L128.43 660.57L128.43 660.57L128.43 676.345L128.43 676.345L127.68 676.345z" stroke="none" fill="#000000" fill-rule="evenodd" /><path transform="matrix(1 0 0 -1 0 842)" d="M190.75 660.57L191.5 660.57L191.5 660.57L191.5 676.345L191.5 676.345L190.75 676.345z" stroke="none" fill="#000000" fill-rule="evenodd" /><path transform="matrix(1 0 0 -1 0 842)" d="M449.08 660.57L449.83 660.57L449.83 660.57L449.83 676.345L449.83 676.345L449.08 676.345z" stroke="none" fill="#000000" fill-rule="evenodd" /><path transform="matrix(1 0 0 -1 0 842)" d="M506.9 660.57L507.65 660.57L507.65 660.57L507.65 676.345L507.65 676.345L506.9 676.345z" stroke="none" fill="#000000" fill-rule="evenodd" /><g clip-path="url(#86)"><g clip-path="url(#87)"></g><g clip-path="url(#88)"></g></g><g clip-path="url(#89)"><g clip-path="url(#90)"></g><g clip-path="url(#91)"></g></g><g clip-path="url(#92)"><g clip-path="url(#93)"></g><g clip-path="url(#94)"></g><g clip-path="url(#95)"></g></g><g clip-path="url(#96)"><g clip-path="url(#97)"></g><g clip-path="url(#98)"></g><g clip-path="url(#99)"></g></g><path transform="matrix(1 0 0 -1 0 842)" d="M80.35 659.83L81.1 659.83L81.1 659.83L81.1 660.58L81.1 660.58L80.35 660.58z" stroke="none" fill="#000000" fill-rule="evenodd" /><path transform="matrix(1 0 0 -1 0 842)" d="M81.1 659.83L127.675 659.83L127.675 659.83L127.675 660.58L127.675 660.58L81.1 660.58z" stroke="none" fill="#000000" fill-rule="evenodd" /><path transform="matrix(1 0 0 -1 0 842)" d="M127.68 659.83L128.43 659.83L128.43 659.83L128.43 660.58L128.43 660.58L127.68 660.58z" stroke="none" fill="#000000" fill-rule="evenodd" /><path transform="matrix(1 0 0 -1 0 842)" d="M128.43 659.83L190.755 659.83L190.755 659.83L190.755 660.58L190.755 660.58L128.43 660.58z" stroke="none" fill="#000000" fill-rule="evenodd" /><path transform="matrix(1 0 0 -1 0 842)" d="M190.75 659.83L191.5 659.83L191.5 659.83L191.5 660.58L191.5 660.58L190.75 660.58z" stroke="none" fill="#000000" fill-rule="evenodd" /><path transform="matrix(1 0 0 -1 0 842)" d="M191.5 659.83L449.08 659.83L449.08 659.83L449.08 660.58L449.08 660.58L191.5 660.58z" stroke="none" fill="#000000" fill-rule="evenodd" /><path transform="matrix(1 0 0 -1 0 842)" d="M449.08 659.83L449.83 659.83L449.83 659.83L449.83 660.58L449.83 660.58L449.08 660.58z" stroke="none" fill="#000000" fill-rule="evenodd" /><path transform="matrix(1 0 0 -1 0 842)" d="M449.83 659.83L506.905 659.83L506.905 659.83L506.905 660.58L506.905 660.58L449.83 660.58z" stroke="none" fill="#000000" fill-rule="evenodd" /><path transform="matrix(1 0 0 -1 0 842)" d="M506.9 659.83L507.65 659.83L507.65 659.83L507.65 660.58L507.65 660.58L506.9 660.58z" stroke="none" fill="#000000" fill-rule="evenodd" /><path transform="matrix(1 0 0 -1 0 842)" d="M80.35 629.05L81.1 629.05L81.1 629.05L81.1 659.825L81.1 659.825L80.35 659.825z" stroke="none" fill="#000000" fill-rule="evenodd" /><path transform="matrix(1 0 0 -1 0 842)" d="M127.68 629.05L128.43 629.05L128.43 629.05L128.43 659.825L128.43 659.825L127.68 659.825z" stroke="none" fill="#000000" fill-rule="evenodd" /><path transform="matrix(1 0 0 -1 0 842)" d="M190.75 629.05L191.5 629.05L191.5 629.05L191.5 659.825L191.5 659.825L190.75 659.825z" stroke="none" fill="#000000" fill-rule="evenodd" /><path transform="matrix(1 0 0 -1 0 842)" d="M449.08 629.05L449.83 629.05L449.83 629.05L449.83 659.825L449.83 659.825L449.08 659.825z" stroke="none" fill="#000000" fill-rule="evenodd" /><path transform="matrix(1 0 0 -1 0 842)" d="M506.9 629.05L507.65 629.05L507.65 629.05L507.65 659.825L507.65 659.825L506.9 659.825z" stroke="none" fill="#000000" fill-rule="evenodd" /><g clip-path="url(#100)"><g clip-path="url(#101)"></g><g clip-path="url(#102)"></g></g><g clip-path="url(#103)"><g clip-path="url(#104)"></g><g clip-path="url(#105)"></g></g><g clip-path="url(#106)"><g clip-path="url(#107)"></g><g clip-path="url(#108)"></g><g clip-path="url(#109)"></g></g><g clip-path="url(#110)"><g clip-path="url(#111)"></g><g clip-path="url(#112)"></g><g clip-path="url(#113)"></g></g><path transform="matrix(1 0 0 -1 0 842)" d="M80.35 628.3L81.1 628.3L81.1 628.3L81.1 629.05L81.1 629.05L80.35 629.05z" stroke="none" fill="#000000" fill-rule="evenodd" /><path transform="matrix(1 0 0 -1 0 842)" d="M81.1 628.3L127.675 628.3L127.675 628.3L127.675 629.05L127.675 629.05L81.1 629.05z" stroke="none" fill="#000000" fill-rule="evenodd" /><path transform="matrix(1 0 0 -1 0 842)" d="M127.68 628.3L128.43 628.3L128.43 628.3L128.43 629.05L128.43 629.05L127.68 629.05z" stroke="none" fill="#000000" fill-rule="evenodd" /><path transform="matrix(1 0 0 -1 0 842)" d="M128.43 628.3L190.755 628.3L190.755 628.3L190.755 629.05L190.755 629.05L128.43 629.05z" stroke="none" fill="#000000" fill-rule="evenodd" /><path transform="matrix(1 0 0 -1 0 842)" d="M190.75 628.3L191.5 628.3L191.5 628.3L191.5 629.05L191.5 629.05L190.75 629.05z" stroke="none" fill="#000000" fill-rule="evenodd" /><path transform="matrix(1 0 0 -1 0 842)" d="M191.5 628.3L449.08 628.3L449.08 628.3L449.08 629.05L449.08 629.05L191.5 629.05z" stroke="none" fill="#000000" fill-rule="evenodd" /><path transform="matrix(1 0 0 -1 0 842)" d="M449.08 628.3L449.83 628.3L449.83 628.3L449.83 629.05L449.83 629.05L449.08 629.05z" stroke="none" fill="#000000" fill-rule="evenodd" /><path transform="matrix(1 0 0 -1 0 842)" d="M449.83 628.3L506.905 628.3L506.905 628.3L506.905 629.05L506.905 629.05L449.83 629.05z" stroke="none" fill="#000000" fill-rule="evenodd" /><path transform="matrix(1 0 0 -1 0 842)" d="M506.9 628.3L507.65 628.3L507.65 628.3L507.65 629.05L507.65 629.05L506.9 629.05z" stroke="none" fill="#000000" fill-rule="evenodd" /><path transform="matrix(1 0 0 -1 0 842)" d="M80.35 597.52L81.1 597.52L81.1 597.52L81.1 628.295L81.1 628.295L80.35 628.295z" stroke="none" fill="#000000" fill-rule="evenodd" /><path transform="matrix(1 0 0 -1 0 842)" d="M127.68 597.52L128.43 597.52L128.43 597.52L128.43 628.295L128.43 628.295L127.68 628.295z" stroke="none" fill="#000000" fill-rule="evenodd" /><path transform="matrix(1 0 0 -1 0 842)" d="M190.75 597.52L191.5 597.52L191.5 597.52L191.5 628.295L191.5 628.295L190.75 628.295z" stroke="none" fill="#000000" fill-rule="evenodd" /><path transform="matrix(1 0 0 -1 0 842)" d="M449.08 597.52L449.83 597.52L449.83 597.52L449.83 628.295L449.83 628.295L449.08 628.295z" stroke="none" fill="#000000" fill-rule="evenodd" /><path transform="matrix(1 0 0 -1 0 842)" d="M506.9 597.52L507.65 597.52L507.65 597.52L507.65 628.295L507.65 628.295L506.9 628.295z" stroke="none" fill="#000000" fill-rule="evenodd" /><g clip-path="url(#114)"><g clip-path="url(#115)"></g><g clip-path="url(#116)"></g></g><g clip-path="url(#117)"><g clip-path="url(#118)"></g><g clip-path="url(#119)"></g></g><g clip-path="url(#120)"><g clip-path="url(#121)"></g><g clip-path="url(#122)"></g></g><g clip-path="url(#123)"><g clip-path="url(#124)"></g><g clip-path="url(#125)"></g><g clip-path="url(#126)"></g></g><path transform="matrix(1 0 0 -1 0 842)" d="M80.35 596.78L81.1 596.78L81.1 596.78L81.1 597.53L81.1 597.53L80.35 597.53z" stroke="none" fill="#000000" fill-rule="evenodd" /><path transform="matrix(1 0 0 -1 0 842)" d="M81.1 596.78L127.675 596.78L127.675 596.78L127.675 597.53L127.675 597.53L81.1 597.53z" stroke="none" fill="#000000" fill-rule="evenodd" /><path transform="matrix(1 0 0 -1 0 842)" d="M127.68 596.78L128.43 596.78L128.43 596.78L128.43 597.53L128.43 597.53L127.68 597.53z" stroke="none" fill="#000000" fill-rule="evenodd" /><path transform="matrix(1 0 0 -1 0 842)" d="M128.43 596.78L190.755 596.78L190.755 596.78L190.755 597.53L190.755 597.53L128.43 597.53z" stroke="none" fill="#000000" fill-rule="evenodd" /><path transform="matrix(1 0 0 -1 0 842)" d="M190.75 596.78L191.5 596.78L191.5 596.78L191.5 597.53L191.5 597.53L190.75 597.53z" stroke="none" fill="#000000" fill-rule="evenodd" /><path transform="matrix(1 0 0 -1 0 842)" d="M191.5 596.78L449.08 596.78L449.08 596.78L449.08 597.53L449.08 597.53L191.5 597.53z" stroke="none" fill="#000000" fill-rule="evenodd" /><path transform="matrix(1 0 0 -1 0 842)" d="M449.08 596.78L449.83 596.78L449.83 596.78L449.83 597.53L449.83 597.53L449.08 597.53z" stroke="none" fill="#000000" fill-rule="evenodd" /><path transform="matrix(1 0 0 -1 0 842)" d="M449.83 596.78L506.905 596.78L506.905 596.78L506.905 597.53L506.905 597.53L449.83 597.53z" stroke="none" fill="#000000" fill-rule="evenodd" /><path transform="matrix(1 0 0 -1 0 842)" d="M506.9 596.78L507.65 596.78L507.65 596.78L507.65 597.53L507.65 597.53L506.9 597.53z" stroke="none" fill="#000000" fill-rule="evenodd" /><path transform="matrix(1 0 0 -1 0 842)" d="M80.35 565.25L81.1 565.25L81.1 565.25L81.1 596.775L81.1 596.775L80.35 596.775z" stroke="none" fill="#000000" fill-rule="evenodd" /><path transform="matrix(1 0 0 -1 0 842)" d="M127.68 565.25L128.43 565.25L128.43 565.25L128.43 596.775L128.43 596.775L127.68 596.775z" stroke="none" fill="#000000" fill-rule="evenodd" /><path transform="matrix(1 0 0 -1 0 842)" d="M190.75 565.25L191.5 565.25L191.5 565.25L191.5 596.775L191.5 596.775L190.75 596.775z" stroke="none" fill="#000000" fill-rule="evenodd" /><path transform="matrix(1 0 0 -1 0 842)" d="M449.08 565.25L449.83 565.25L449.83 565.25L449.83 596.775L449.83 596.775L449.08 596.775z" stroke="none" fill="#000000" fill-rule="evenodd" /><path transform="matrix(1 0 0 -1 0 842)" d="M506.9 565.25L507.65 565.25L507.65 565.25L507.65 596.775L507.65 596.775L506.9 596.775z" stroke="none" fill="#000000" fill-rule="evenodd" /><g clip-path="url(#127)"><g clip-path="url(#128)"></g><g clip-path="url(#129)"></g></g><g clip-path="url(#130)"><g clip-path="url(#131)"></g><g clip-path="url(#132)"></g></g><g clip-path="url(#133)"><g clip-path="url(#134)"></g><g clip-path="url(#135)"></g></g><g clip-path="url(#136)"><g clip-path="url(#137)"></g><g clip-path="url(#138)"></g><g clip-path="url(#139)"></g></g><path transform="matrix(1 0 0 -1 0 842)" d="M80.35 564.5L81.1 564.5L81.1 564.5L81.1 565.25L81.1 565.25L80.35 565.25z" stroke="none" fill="#000000" fill-rule="evenodd" /><path transform="matrix(1 0 0 -1 0 842)" d="M81.1 564.5L127.675 564.5L127.675 564.5L127.675 565.25L127.675 565.25L81.1 565.25z" stroke="none" fill="#000000" fill-rule="evenodd" /><path transform="matrix(1 0 0 -1 0 842)" d="M127.68 564.5L128.43 564.5L128.43 564.5L128.43 565.25L128.43 565.25L127.68 565.25z" stroke="none" fill="#000000" fill-rule="evenodd" /><path transform="matrix(1 0 0 -1 0 842)" d="M128.43 564.5L190.755 564.5L190.755 564.5L190.755 565.25L190.755 565.25L128.43 565.25z" stroke="none" fill="#000000" fill-rule="evenodd" /><path transform="matrix(1 0 0 -1 0 842)" d="M190.75 564.5L191.5 564.5L191.5 564.5L191.5 565.25L191.5 565.25L190.75 565.25z" stroke="none" fill="#000000" fill-rule="evenodd" /><path transform="matrix(1 0 0 -1 0 842)" d="M191.5 564.5L449.08 564.5L449.08 564.5L449.08 565.25L449.08 565.25L191.5 565.25z" stroke="none" fill="#000000" fill-rule="evenodd" /><path transform="matrix(1 0 0 -1 0 842)" d="M449.08 564.5L449.83 564.5L449.83 564.5L449.83 565.25L449.83 565.25L449.08 565.25z" stroke="none" fill="#000000" fill-rule="evenodd" /><path transform="matrix(1 0 0 -1 0 842)" d="M449.83 564.5L506.905 564.5L506.905 564.5L506.905 565.25L506.905 565.25L449.83 565.25z" stroke="none" fill="#000000" fill-rule="evenodd" /><path transform="matrix(1 0 0 -1 0 842)" d="M506.9 564.5L507.65 564.5L507.65 564.5L507.65 565.25L507.65 565.25L506.9 565.25z" stroke="none" fill="#000000" fill-rule="evenodd" /><path transform="matrix(1 0 0 -1 0 842)" d="M80.35 533.72L81.1 533.72L81.1 533.72L81.1 564.495L81.1 564.495L80.35 564.495z" stroke="none" fill="#000000" fill-rule="evenodd" /><path transform="matrix(1 0 0 -1 0 842)" d="M127.68 533.72L128.43 533.72L128.43 533.72L128.43 564.495L128.43 564.495L127.68 564.495z" stroke="none" fill="#000000" fill-rule="evenodd" /><path transform="matrix(1 0 0 -1 0 842)" d="M190.75 533.72L191.5 533.72L191.5 533.72L191.5 564.495L191.5 564.495L190.75 564.495z" stroke="none" fill="#000000" fill-rule="evenodd" /><path transform="matrix(1 0 0 -1 0 842)" d="M449.08 533.72L449.83 533.72L449.83 533.72L449.83 564.495L449.83 564.495L449.08 564.495z" stroke="none" fill="#000000" fill-rule="evenodd" /><path transform="matrix(1 0 0 -1 0 842)" d="M506.9 533.72L507.65 533.72L507.65 533.72L507.65 564.495L507.65 564.495L506.9 564.495z" stroke="none" fill="#000000" fill-rule="evenodd" /><g clip-path="url(#140)"><g clip-path="url(#141)"></g><g clip-path="url(#142)"></g></g><g clip-path="url(#143)"><g clip-path="url(#144)"></g><g clip-path="url(#145)"></g></g><g clip-path="url(#146)"><g clip-path="url(#147)"></g><g clip-path="url(#148)"></g></g><g clip-path="url(#149)"><g clip-path="url(#150)"></g><g clip-path="url(#151)"></g><g clip-path="url(#152)"></g></g><path transform="matrix(1 0 0 -1 0 842)" d="M80.35 532.97L81.1 532.97L81.1 532.97L81.1 533.72L81.1 533.72L80.35 533.72z" stroke="none" fill="#000000" fill-rule="evenodd" /><path transform="matrix(1 0 0 -1 0 842)" d="M81.1 532.97L127.675 532.97L127.675 532.97L127.675 533.72L127.675 533.72L81.1 533.72z" stroke="none" fill="#000000" fill-rule="evenodd" /><path transform="matrix(1 0 0 -1 0 842)" d="M127.68 532.97L128.43 532.97L128.43 532.97L128.43 533.72L128.43 533.72L127.68 533.72z" stroke="none" fill="#000000" fill-rule="evenodd" /><path transform="matrix(1 0 0 -1 0 842)" d="M128.43 532.97L190.755 532.97L190.755 532.97L190.755 533.72L190.755 533.72L128.43 533.72z" stroke="none" fill="#000000" fill-rule="evenodd" /><path transform="matrix(1 0 0 -1 0 842)" d="M190.75 532.97L191.5 532.97L191.5 532.97L191.5 533.72L191.5 533.72L190.75 533.72z" stroke="none" fill="#000000" fill-rule="evenodd" /><path transform="matrix(1 0 0 -1 0 842)" d="M191.5 532.97L449.08 532.97L449.08 532.97L449.08 533.72L449.08 533.72L191.5 533.72z" stroke="none" fill="#000000" fill-rule="evenodd" /><path transform="matrix(1 0 0 -1 0 842)" d="M449.08 532.97L449.83 532.97L449.83 532.97L449.83 533.72L449.83 533.72L449.08 533.72z" stroke="none" fill="#000000" fill-rule="evenodd" /><path transform="matrix(1 0 0 -1 0 842)" d="M449.83 532.97L506.905 532.97L506.905 532.97L506.905 533.72L506.905 533.72L449.83 533.72z" stroke="none" fill="#000000" fill-rule="evenodd" /><path transform="matrix(1 0 0 -1 0 842)" d="M506.9 532.97L507.65 532.97L507.65 532.97L507.65 533.72L507.65 533.72L506.9 533.72z" stroke="none" fill="#000000" fill-rule="evenodd" /><path transform="matrix(1 0 0 -1 0 842)" d="M80.35 502.2L81.1 502.2L81.1 502.2L81.1 532.975L81.1 532.975L80.35 532.975z" stroke="none" fill="#000000" fill-rule="evenodd" /><path transform="matrix(1 0 0 -1 0 842)" d="M127.68 502.2L128.43 502.2L128.43 502.2L128.43 532.975L128.43 532.975L127.68 532.975z" stroke="none" fill="#000000" fill-rule="evenodd" /><path transform="matrix(1 0 0 -1 0 842)" d="M190.75 502.2L191.5 502.2L191.5 502.2L191.5 532.975L191.5 532.975L190.75 532.975z" stroke="none" fill="#000000" fill-rule="evenodd" /><path transform="matrix(1 0 0 -1 0 842)" d="M449.08 502.2L449.83 502.2L449.83 502.2L449.83 532.975L449.83 532.975L449.08 532.975z" stroke="none" fill="#000000" fill-rule="evenodd" /><path transform="matrix(1 0 0 -1 0 842)" d="M506.9 502.2L507.65 502.2L507.65 502.2L507.65 532.975L507.65 532.975L506.9 532.975z" stroke="none" fill="#000000" fill-rule="evenodd" /><g clip-path="url(#153)"><g clip-path="url(#154)"></g><g clip-path="url(#155)"></g></g><g clip-path="url(#156)"><g clip-path="url(#157)"></g><g clip-path="url(#158)"></g></g><g clip-path="url(#159)"><g clip-path="url(#160)"></g><g clip-path="url(#161)"></g></g><g clip-path="url(#162)"><g clip-path="url(#163)"></g><g clip-path="url(#164)"></g><g clip-path="url(#165)"></g></g><path transform="matrix(1 0 0 -1 0 842)" d="M80.35 501.45L81.1 501.45L81.1 501.45L81.1 502.2L81.1 502.2L80.35 502.2z" stroke="none" fill="#000000" fill-rule="evenodd" /><path transform="matrix(1 0 0 -1 0 842)" d="M81.1 501.45L127.675 501.45L127.675 501.45L127.675 502.2L127.675 502.2L81.1 502.2z" stroke="none" fill="#000000" fill-rule="evenodd" /><path transform="matrix(1 0 0 -1 0 842)" d="M127.68 501.45L128.43 501.45L128.43 501.45L128.43 502.2L128.43 502.2L127.68 502.2z" stroke="none" fill="#000000" fill-rule="evenodd" /><path transform="matrix(1 0 0 -1 0 842)" d="M128.43 501.45L190.755 501.45L190.755 501.45L190.755 502.2L190.755 502.2L128.43 502.2z" stroke="none" fill="#000000" fill-rule="evenodd" /><path transform="matrix(1 0 0 -1 0 842)" d="M190.75 501.45L191.5 501.45L191.5 501.45L191.5 502.2L191.5 502.2L190.75 502.2z" stroke="none" fill="#000000" fill-rule="evenodd" /><path transform="matrix(1 0 0 -1 0 842)" d="M191.5 501.45L449.08 501.45L449.08 501.45L449.08 502.2L449.08 502.2L191.5 502.2z" stroke="none" fill="#000000" fill-rule="evenodd" /><path transform="matrix(1 0 0 -1 0 842)" d="M449.08 501.45L449.83 501.45L449.83 501.45L449.83 502.2L449.83 502.2L449.08 502.2z" stroke="none" fill="#000000" fill-rule="evenodd" /><path transform="matrix(1 0 0 -1 0 842)" d="M449.83 501.45L506.905 501.45L506.905 501.45L506.905 502.2L506.905 502.2L449.83 502.2z" stroke="none" fill="#000000" fill-rule="evenodd" /><path transform="matrix(1 0 0 -1 0 842)" d="M506.9 501.45L507.65 501.45L507.65 501.45L507.65 502.2L507.65 502.2L506.9 502.2z" stroke="none" fill="#000000" fill-rule="evenodd" /><path transform="matrix(1 0 0 -1 0 842)" d="M80.35 470.67L81.1 470.67L81.1 470.67L81.1 501.445L81.1 501.445L80.35 501.445z" stroke="none" fill="#000000" fill-rule="evenodd" /><path transform="matrix(1 0 0 -1 0 842)" d="M80.35 469.92L81.1 469.92L81.1 469.92L81.1 470.67L81.1 470.67L80.35 470.67z" stroke="none" fill="#000000" fill-rule="evenodd" /><path transform="matrix(1 0 0 -1 0 842)" d="M80.35 469.92L81.1 469.92L81.1 469.92L81.1 470.67L81.1 470.67L80.35 470.67z" stroke="none" fill="#000000" fill-rule="evenodd" /><path transform="matrix(1 0 0 -1 0 842)" d="M81.1 469.92L127.675 469.92L127.675 469.92L127.675 470.67L127.675 470.67L81.1 470.67z" stroke="none" fill="#000000" fill-rule="evenodd" /><path transform="matrix(1 0 0 -1 0 842)" d="M127.68 470.67L128.43 470.67L128.43 470.67L128.43 501.445L128.43 501.445L127.68 501.445z" stroke="none" fill="#000000" fill-rule="evenodd" /><path transform="matrix(1 0 0 -1 0 842)" d="M127.68 469.92L128.43 469.92L128.43 469.92L128.43 470.67L128.43 470.67L127.68 470.67z" stroke="none" fill="#000000" fill-rule="evenodd" /><path transform="matrix(1 0 0 -1 0 842)" d="M128.43 469.92L190.755 469.92L190.755 469.92L190.755 470.67L190.755 470.67L128.43 470.67z" stroke="none" fill="#000000" fill-rule="evenodd" /><path transform="matrix(1 0 0 -1 0 842)" d="M190.75 470.67L191.5 470.67L191.5 470.67L191.5 501.445L191.5 501.445L190.75 501.445z" stroke="none" fill="#000000" fill-rule="evenodd" /><path transform="matrix(1 0 0 -1 0 842)" d="M190.75 469.92L191.5 469.92L191.5 469.92L191.5 470.67L191.5 470.67L190.75 470.67z" stroke="none" fill="#000000" fill-rule="evenodd" /><path transform="matrix(1 0 0 -1 0 842)" d="M191.5 469.92L449.08 469.92L449.08 469.92L449.08 470.67L449.08 470.67L191.5 470.67z" stroke="none" fill="#000000" fill-rule="evenodd" /><path transform="matrix(1 0 0 -1 0 842)" d="M449.08 470.67L449.83 470.67L449.83 470.67L449.83 501.445L449.83 501.445L449.08 501.445z" stroke="none" fill="#000000" fill-rule="evenodd" /><path transform="matrix(1 0 0 -1 0 842)" d="M449.08 469.92L449.83 469.92L449.83 469.92L449.83 470.67L449.83 470.67L449.08 470.67z" stroke="none" fill="#000000" fill-rule="evenodd" /><path transform="matrix(1 0 0 -1 0 842)" d="M449.83 469.92L506.905 469.92L506.905 469.92L506.905 470.67L506.905 470.67L449.83 470.67z" stroke="none" fill="#000000" fill-rule="evenodd" /><path transform="matrix(1 0 0 -1 0 842)" d="M506.9 470.67L507.65 470.67L507.65 470.67L507.65 501.445L507.65 501.445L506.9 501.445z" stroke="none" fill="#000000" fill-rule="evenodd" /><path transform="matrix(1 0 0 -1 0 842)" d="M506.9 469.92L507.65 469.92L507.65 469.92L507.65 470.67L507.65 470.67L506.9 470.67z" stroke="none" fill="#000000" fill-rule="evenodd" /><path transform="matrix(1 0 0 -1 0 842)" d="M506.9 469.92L507.65 469.92L507.65 469.92L507.65 470.67L507.65 470.67L506.9 470.67z" stroke="none" fill="#000000" fill-rule="evenodd" /></g><g clip-path="url(#166)"><g transform="matrix(0.3270642 0 0 0.3275 366.15 406.35)"><g transform="matrix(1 0 0 1 0 0)"><image x="0" y="0" xlink:href="img_03.png" width="436" height="580" /></g></g></g></g></g></g></svg>