<svg xmlns="http://www.w3.org/2000/svg" xmlns:xlink="http://www.w3.org/1999/xlink" id="body_5" preserveAspectRatio="xMinYMin meet" viewBox="0 0 793 1123"><defs><clipPath id="1"><path clip-rule="evenodd" d="M0 842L0 -0.25L0 -0.25L595.5 -0.25L595.5 -0.25L595.5 842L595.5 842L0 842z" /></clipPath><clipPath id="2"><path clip-rule="evenodd" d="M8.874E-06 842L595.5 842L595.5 842L595.5 -0.25L595.5 -0.25L8.874E-06 -0.25z" /></clipPath><clipPath id="3"><path clip-rule="evenodd" d="M8.874E-06 842L595.5 842L595.5 842L595.5 -0.25L595.5 -0.25L8.874E-06 -0.25z" /></clipPath><clipPath id="4"><path clip-rule="evenodd" d="M8.874E-06 842L595.5 842L595.5 842L595.5 -0.25L595.5 -0.25L8.874E-06 -0.25z" /></clipPath><clipPath id="5"><path clip-rule="evenodd" d="M8.874E-06 842L595.5 842L595.5 842L595.5 -0.25L595.5 -0.25L8.874E-06 -0.25z" /></clipPath><clipPath id="6"><path clip-rule="evenodd" d="M8.874E-06 842L595.5 842L595.5 842L595.5 -0.25L595.5 -0.25L8.874E-06 -0.25z" /></clipPath><clipPath id="7"><path clip-rule="evenodd" d="M8.874E-06 842L595.5 842L595.5 842L595.5 -0.25L595.5 -0.25L8.874E-06 -0.25z" /></clipPath><clipPath id="8"><path clip-rule="evenodd" d="M8.874E-06 842L595.5 842L595.5 842L595.5 -0.25L595.5 -0.25L8.874E-06 -0.25z" /></clipPath><clipPath id="9"><path clip-rule="evenodd" d="M8.874E-06 842L595.5 842L595.5 842L595.5 -0.25L595.5 -0.25L8.874E-06 -0.25z" /></clipPath><clipPath id="10"><path clip-rule="evenodd" d="M8.874E-06 842L595.5 842L595.5 842L595.5 -0.25L595.5 -0.25L8.874E-06 -0.25z" /></clipPath><clipPath id="11"><path clip-rule="evenodd" d="M8.874E-06 842L595.5 842L595.5 842L595.5 -0.25L595.5 -0.25L8.874E-06 -0.25z" /></clipPath><clipPath id="12"><path clip-rule="evenodd" d="M8.874E-06 842L595.5 842L595.5 842L595.5 -0.25L595.5 -0.25L8.874E-06 -0.25z" /></clipPath><clipPath id="13"><path clip-rule="evenodd" d="M8.874E-06 842L595.5 842L595.5 842L595.5 -0.25L595.5 -0.25L8.874E-06 -0.25z" /></clipPath><clipPath id="14"><path clip-rule="evenodd" d="M8.874E-06 842L595.5 842L595.5 842L595.5 -0.25L595.5 -0.25L8.874E-06 -0.25z" /></clipPath><clipPath id="15"><path clip-rule="evenodd" d="M8.874E-06 842L595.5 842L595.5 842L595.5 -0.25L595.5 -0.25L8.874E-06 -0.25z" /></clipPath><clipPath id="16"><path clip-rule="evenodd" d="M8.874E-06 842L595.5 842L595.5 842L595.5 -0.25L595.5 -0.25L8.874E-06 -0.25z" /></clipPath><clipPath id="17"><path clip-rule="evenodd" d="M8.874E-06 842L595.5 842L595.5 842L595.5 -0.25L595.5 -0.25L8.874E-06 -0.25z" /></clipPath><clipPath id="18"><path clip-rule="evenodd" d="M8.874E-06 842L595.5 842L595.5 842L595.5 -0.25L595.5 -0.25L8.874E-06 -0.25z" /></clipPath><clipPath id="19"><path clip-rule="evenodd" d="M8.874E-06 842L595.5 842L595.5 842L595.5 -0.25L595.5 -0.25L8.874E-06 -0.25z" /></clipPath><clipPath id="20"><path clip-rule="evenodd" d="M8.874E-06 842L595.5 842L595.5 842L595.5 -0.25L595.5 -0.25L8.874E-06 -0.25z" /></clipPath><clipPath id="21"><path clip-rule="evenodd" d="M8.874E-06 842L595.5 842L595.5 842L595.5 -0.25L595.5 -0.25L8.874E-06 -0.25z" /></clipPath><clipPath id="22"><path clip-rule="evenodd" d="M8.874E-06 842L595.5 842L595.5 842L595.5 -0.25L595.5 -0.25L8.874E-06 -0.25z" /></clipPath><clipPath id="23"><path clip-rule="evenodd" d="M8.874E-06 842L595.5 842L595.5 842L595.5 -0.25L595.5 -0.25L8.874E-06 -0.25z" /></clipPath><clipPath id="24"><path clip-rule="evenodd" d="M8.874E-06 842L595.5 842L595.5 842L595.5 -0.25L595.5 -0.25L8.874E-06 -0.25z" /></clipPath><clipPath id="25"><path clip-rule="evenodd" d="M8.874E-06 842L595.5 842L595.5 842L595.5 -0.25L595.5 -0.25L8.874E-06 -0.25z" /></clipPath><clipPath id="26"><path clip-rule="evenodd" d="M8.874E-06 842L595.5 842L595.5 842L595.5 -0.25L595.5 -0.25L8.874E-06 -0.25z" /></clipPath><clipPath id="27"><path clip-rule="evenodd" d="M8.874E-06 842L595.5 842L595.5 842L595.5 -0.25L595.5 -0.25L8.874E-06 -0.25z" /></clipPath><clipPath id="28"><path clip-rule="evenodd" d="M8.874E-06 842L595.5 842L595.5 842L595.5 -0.25L595.5 -0.25L8.874E-06 -0.25z" /></clipPath><clipPath id="29"><path clip-rule="evenodd" d="M8.874E-06 842L595.5 842L595.5 842L595.5 -0.25L595.5 -0.25L8.874E-06 -0.25z" /></clipPath><clipPath id="30"><path clip-rule="evenodd" d="M8.874E-06 842L595.5 842L595.5 842L595.5 -0.25L595.5 -0.25L8.874E-06 -0.25z" /></clipPath><clipPath id="31"><path clip-rule="evenodd" d="M8.874E-06 842L595.5 842L595.5 842L595.5 -0.25L595.5 -0.25L8.874E-06 -0.25z" /></clipPath><clipPath id="32"><path clip-rule="evenodd" d="M8.874E-06 842L595.5 842L595.5 842L595.5 -0.25L595.5 -0.25L8.874E-06 -0.25z" /></clipPath><clipPath id="33"><path clip-rule="evenodd" d="M8.874E-06 842L595.5 842L595.5 842L595.5 -0.25L595.5 -0.25L8.874E-06 -0.25z" /></clipPath><clipPath id="34"><path clip-rule="evenodd" d="M8.874E-06 842L595.5 842L595.5 842L595.5 -0.25L595.5 -0.25L8.874E-06 -0.25z" /></clipPath><clipPath id="35"><path clip-rule="evenodd" d="M8.874E-06 842L595.5 842L595.5 842L595.5 -0.25L595.5 -0.25L8.874E-06 -0.25z" /></clipPath><clipPath id="36"><path clip-rule="evenodd" d="M8.874E-06 842L595.5 842L595.5 842L595.5 -0.25L595.5 -0.25L8.874E-06 -0.25z" /></clipPath><clipPath id="37"><path clip-rule="evenodd" d="M8.874E-06 842L595.5 842L595.5 842L595.5 -0.25L595.5 -0.25L8.874E-06 -0.25z" /></clipPath><clipPath id="38"><path clip-rule="evenodd" d="M8.874E-06 842L595.5 842L595.5 842L595.5 -0.25L595.5 -0.25L8.874E-06 -0.25z" /></clipPath><clipPath id="39"><path clip-rule="evenodd" d="M8.874E-06 842L595.5 842L595.5 842L595.5 -0.25L595.5 -0.25L8.874E-06 -0.25z" /></clipPath><clipPath id="40"><path clip-rule="evenodd" d="M8.874E-06 842L595.5 842L595.5 842L595.5 -0.25L595.5 -0.25L8.874E-06 -0.25z" /></clipPath><clipPath id="41"><path clip-rule="evenodd" d="M8.874E-06 842L595.5 842L595.5 842L595.5 -0.25L595.5 -0.25L8.874E-06 -0.25z" /></clipPath><clipPath id="42"><path clip-rule="evenodd" d="M8.874E-06 842L595.5 842L595.5 842L595.5 -0.25L595.5 -0.25L8.874E-06 -0.25z" /></clipPath><clipPath id="43"><path clip-rule="evenodd" d="M8.874E-06 842L595.5 842L595.5 842L595.5 -0.25L595.5 -0.25L8.874E-06 -0.25z" /></clipPath><clipPath id="44"><path clip-rule="evenodd" d="M8.874E-06 842L595.5 842L595.5 842L595.5 -0.25L595.5 -0.25L8.874E-06 -0.25z" /></clipPath><clipPath id="45"><path clip-rule="evenodd" d="M135 305.75L421.5 305.75L421.5 305.75L421.5 178.25L421.5 178.25L135 178.25z" /></clipPath><clipPath id="46"><path clip-rule="evenodd" d="M111 329L432 329L432 329L432 140L432 140L111 140z" /></clipPath><clipPath id="47"><path clip-rule="evenodd" d="M111 329L432 329L432 329L432 140L432 140L111 140z" /></clipPath><clipPath id="48"><path clip-rule="evenodd" d="M111 329L432 329L432 329L432 140L432 140L111 140z" /></clipPath><clipPath id="49"><path clip-rule="evenodd" d="M111 329L432 329L432 329L432 140L432 140L111 140z" /></clipPath><clipPath id="50"><path clip-rule="evenodd" d="M111 329L432 329L432 329L432 140L432 140L111 140z" /></clipPath><clipPath id="51"><path clip-rule="evenodd" d="M111 329L432 329L432 329L432 140L432 140L111 140z" /></clipPath><clipPath id="52"><path clip-rule="evenodd" d="M111 329L432 329L432 329L432 140L432 140L111 140z" /></clipPath><clipPath id="53"><path clip-rule="evenodd" d="M111 329L432 329L432 329L432 140L432 140L111 140z" /></clipPath><clipPath id="54"><path clip-rule="evenodd" d="M111 329L432 329L432 329L432 140L432 140L111 140z" /></clipPath><clipPath id="55"><path clip-rule="evenodd" d="M111 329L432 329L432 329L432 140L432 140L111 140z" /></clipPath><clipPath id="56"><path clip-rule="evenodd" d="M111 329L432 329L432 329L432 140L432 140L111 140z" /></clipPath><clipPath id="57"><path clip-rule="evenodd" d="M111 329L432 329L432 329L432 140L432 140L111 140z" /></clipPath><clipPath id="58"><path clip-rule="evenodd" d="M111 329L432 329L432 329L432 140L432 140L111 140z" /></clipPath><clipPath id="59"><path clip-rule="evenodd" d="M111 329L432 329L432 329L432 140L432 140L111 140z" /></clipPath><clipPath id="60"><path clip-rule="evenodd" d="M111 329L432 329L432 329L432 140L432 140L111 140z" /></clipPath><clipPath id="61"><path clip-rule="evenodd" d="M111 329L432 329L432 329L432 140L432 140L111 140z" /></clipPath><clipPath id="62"><path clip-rule="evenodd" d="M111 329L432 329L432 329L432 140L432 140L111 140z" /></clipPath><clipPath id="63"><path clip-rule="evenodd" d="M111 329L432 329L432 329L432 140L432 140L111 140z" /></clipPath><clipPath id="64"><path clip-rule="evenodd" d="M111 329L432 329L432 329L432 140L432 140L111 140z" /></clipPath><clipPath id="65"><path clip-rule="evenodd" d="M111 329L432 329L432 329L432 140L432 140L111 140z" /></clipPath><clipPath id="66"><path clip-rule="evenodd" d="M111 329L432 329L432 329L432 140L432 140L111 140z" /></clipPath><clipPath id="67"><path clip-rule="evenodd" d="M111 329L432 329L432 329L432 140L432 140L111 140z" /></clipPath><clipPath id="68"><path clip-rule="evenodd" d="M111 329L432 329L432 329L432 140L432 140L111 140z" /></clipPath><clipPath id="69"><path clip-rule="evenodd" d="M111 329L432 329L432 329L432 140L432 140L111 140z" /></clipPath><pattern patternTransform="matrix(0.75 0 0 -0.75 309.25 358.64)" id="12671" x="0" y="0" width="128" height="128" patternUnits="userSpaceOnUse"><image x="0" y="0" width="128" height="128" xlink:href="img_16.png" /></pattern><pattern patternTransform="matrix(0.75 0 0 -0.75 206.6 332.35)" id="12914" x="0" y="0" width="128" height="128" patternUnits="userSpaceOnUse"><image x="0" y="0" width="128" height="128" xlink:href="img_16.png" /></pattern><pattern patternTransform="matrix(0.75 0 0 -0.75 190.1 373.6)" id="13156" x="0" y="0" width="128" height="128" patternUnits="userSpaceOnUse"><image x="0" y="0" width="128" height="128" xlink:href="img_16.png" /></pattern><pattern patternTransform="matrix(0.75 0 0 -0.75 224.6 434.35)" id="13397" x="0" y="0" width="128" height="128" patternUnits="userSpaceOnUse"><image x="0" y="0" width="128" height="128" xlink:href="img_16.png" /></pattern><clipPath id="70"><path clip-rule="evenodd" d="M111 596.75L418.5 596.75L418.5 596.75L418.5 340.25L418.5 340.25L111 340.25z" /></clipPath><clipPath id="71"><path clip-rule="evenodd" d="M111 596.75L418.5 596.75L418.5 596.75L418.5 340.25L418.5 340.25L111 340.25z" /></clipPath><clipPath id="72"><path clip-rule="evenodd" d="M111 596.75L418.5 596.75L418.5 596.75L418.5 340.25L418.5 340.25L111 340.25z" /></clipPath><clipPath id="73"><path clip-rule="evenodd" d="M111 596.75L418.5 596.75L418.5 596.75L418.5 340.25L418.5 340.25L111 340.25z" /></clipPath><clipPath id="74"><path clip-rule="evenodd" d="M111 596.75L418.5 596.75L418.5 596.75L418.5 340.25L418.5 340.25L111 340.25z" /></clipPath></defs><g transform="matrix(1.333333 0 0 1.333333 0 0)"><g><g clip-path="url(#1)"><g clip-path="url(#2)"></g><g clip-path="url(#3)"></g><g clip-path="url(#4)"></g><g clip-path="url(#5)"></g><g clip-path="url(#6)"></g><g clip-path="url(#7)"></g><g clip-path="url(#8)"></g><g clip-path="url(#9)"></g><g clip-path="url(#10)"></g><g clip-path="url(#11)"></g><g clip-path="url(#12)"></g><g clip-path="url(#13)"></g><g clip-path="url(#14)"></g><g clip-path="url(#15)"></g><g clip-path="url(#16)"></g><g clip-path="url(#17)"></g><g clip-path="url(#18)"></g><g clip-path="url(#19)"></g><g clip-path="url(#20)"></g><g clip-path="url(#21)"></g><g clip-path="url(#22)"></g><g clip-path="url(#23)"></g><g clip-path="url(#24)"></g><g clip-path="url(#25)"></g><g clip-path="url(#26)"></g><g clip-path="url(#27)"></g><g clip-path="url(#28)"></g><g clip-path="url(#29)"></g><g clip-path="url(#30)"></g><g clip-path="url(#31)"></g><g clip-path="url(#32)"></g><g clip-path="url(#33)"></g><g clip-path="url(#34)"></g><g clip-path="url(#35)"></g><g clip-path="url(#36)"></g><g clip-path="url(#37)"></g><g clip-path="url(#38)"></g><g clip-path="url(#39)"></g><g clip-path="url(#40)"></g><g clip-path="url(#41)"></g><g clip-path="url(#42)"></g><g clip-path="url(#43)"></g><g clip-path="url(#44)"></g><path transform="matrix(1 0 0 -1 0 842)" d="M111.35 512.95L432.35 512.95L432.35 512.95L432.35 701.35L432.35 701.35L111.35 701.35z" stroke="none" fill="#FFFFFF" fill-rule="evenodd" /><path transform="matrix(1 0 0 -1 0 842)" d="M135.32 663.15L421.35 663.15M135.32 647.25L421.35 647.25M135.32 631.5L421.35 631.5M135.32 615.75L421.35 615.75M135.32 600L421.35 600M135.32 584.25L421.35 584.25M135.32 568.5L421.35 568.5M135.32 552.75L421.35 552.75" stroke="#D9D9D9" stroke-width="0.75075" fill="none" /><g clip-path="url(#45)"><g transform="matrix(0.7488788 0 0 0.7475641 156.75 193.25)"><g transform="matrix(1 0 0 1 0 0)"><image x="0" y="0" xlink:href="img_15.png" width="330" height="156" /></g></g></g><path transform="matrix(1 0 0 -1 0 842)" d="M374.25 564L396.75 564L396.75 536.86L374.25 536.86zM303 595.5L325.5 595.5L325.5 536.86L303 536.86zM231 645.75L253.5 645.75L253.5 536.86L231 536.86zM159.75 579.75L182.25 579.75L182.25 536.86L159.75 536.86z" stroke="none" fill="#5B9BD5" fill-rule="nonzero" /><path transform="matrix(1 0 0 -1 0 842)" d="M135.32 536.86L421.35 536.86" stroke="#D9D9D9" stroke-width="0.75075" fill="none" /><g clip-path="url(#46)"></g><g clip-path="url(#47)"></g><g clip-path="url(#48)"></g><g clip-path="url(#49)"></g><g clip-path="url(#50)"></g><g clip-path="url(#51)"></g><g clip-path="url(#52)"></g><g clip-path="url(#53)"></g><g clip-path="url(#54)"></g><g clip-path="url(#55)"></g><g clip-path="url(#56)"></g><g clip-path="url(#57)"></g><g clip-path="url(#58)"></g><g clip-path="url(#59)"></g><g clip-path="url(#60)"></g><g clip-path="url(#61)"></g><g clip-path="url(#62)"></g><g clip-path="url(#63)"></g><g clip-path="url(#64)"></g><g clip-path="url(#65)"></g><g clip-path="url(#66)"></g><g clip-path="url(#67)"></g><g clip-path="url(#68)"></g><g clip-path="url(#69)"></g><path transform="matrix(1 0 0 -1 0 842)" d="M111.35 512.95L432.35 512.95L432.35 512.95L432.35 701.35L432.35 701.35L111.35 701.35z" stroke="#D9D9D9" stroke-width="0.75075" fill="none" /><path transform="matrix(1 0 0 -1 0 842)" d="M111.35 244.6L418.6 244.6L418.6 244.6L418.6 501.1L418.6 501.1L111.35 501.1z" stroke="none" fill="#FFFFFF" fill-rule="evenodd" /><path transform="matrix(1 0 0 -1 0 842)" d="M264.98 450C 308.78 450 344.29 414.49 344.29 370.69C 344.29 326.89 308.78 291.38 264.98 291.38C 244.8 291.38 225.39 299.07 210.68 312.88L210.68 312.88L264.98 370.69z" stroke="none" fill="#5B9BD5" fill-rule="evenodd" /><path transform="matrix(1 0 0 -1 0 842)" d="M264.98 450C 308.78 450 344.29 414.49 344.29 370.69C 344.29 326.89 308.78 291.38 264.98 291.38C 244.8 291.38 225.39 299.07 210.68 312.88L210.68 312.88L264.98 370.69z" stroke="#FFFFFF" stroke-width="1.5" fill="none" /><path transform="matrix(1 0 0 -1 0 842)" d="M210.68 312.88C 204.62 318.57 199.48 325.19 195.47 332.48L195.47 332.48L264.98 370.69z" stroke="none" fill="#ED7D31" fill-rule="evenodd" /><path transform="matrix(1 0 0 -1 0 842)" d="M210.68 312.88C 204.62 318.57 199.48 325.19 195.47 332.48L195.47 332.48L264.98 370.69z" stroke="#FFFFFF" stroke-width="1.5" fill="none" /><path transform="matrix(1 0 0 -1 0 842)" d="M195.47 332.48C 183.24 354.73 182.4 381.49 193.21 404.46L193.21 404.46L264.98 370.69z" stroke="none" fill="#A5A5A5" fill-rule="evenodd" /><path transform="matrix(1 0 0 -1 0 842)" d="M195.47 332.48C 183.24 354.73 182.4 381.49 193.21 404.46L193.21 404.46L264.98 370.69z" stroke="#FFFFFF" stroke-width="1.5" fill="none" /><path transform="matrix(1 0 0 -1 0 842)" d="M193.21 404.46C 206.29 432.26 234.25 450 264.98 450L264.98 450L264.98 370.69z" stroke="none" fill="#FFC000" fill-rule="evenodd" /><path transform="matrix(1 0 0 -1 0 842)" d="M193.21 404.46C 206.29 432.26 234.25 450 264.98 450L264.98 450L264.98 370.69z" stroke="#FFFFFF" stroke-width="1.5" fill="none" /><path transform="matrix(1 0 0 -1 0 842)" d="M316 356.16C 316.27 356.16 316.51 356.12 316.72 356.04C 316.93 355.97 317.1 355.86 317.23 355.72C 317.37 355.59 317.47 355.43 317.54 355.25C 317.61 355.08 317.64 354.89 317.64 354.68C 317.64 354.5 317.62 354.32 317.59 354.14C 317.56 353.96 317.49 353.77 317.39 353.56C 317.28 353.35 317.13 353.11 316.94 352.86C 316.74 352.6 316.48 352.31 316.15 351.97L316.15 351.97L315.25 351.03L315.25 351.03L317.73 351.03C 317.75 351.03 317.77 351.02 317.8 351.01C 317.82 351 317.84 350.98 317.85 350.95C 317.87 350.93 317.88 350.89 317.89 350.85C 317.89 350.81 317.9 350.77 317.9 350.72C 317.9 350.66 317.89 350.62 317.89 350.57C 317.88 350.53 317.87 350.5 317.86 350.47C 317.84 350.44 317.83 350.42 317.8 350.41C 317.78 350.4 317.76 350.39 317.73 350.39L317.73 350.39L314.59 350.39C 314.55 350.39 314.51 350.4 314.48 350.41C 314.45 350.42 314.42 350.43 314.4 350.46C 314.38 350.48 314.36 350.51 314.35 350.56C 314.34 350.6 314.34 350.66 314.34 350.72C 314.34 350.78 314.34 350.83 314.35 350.87C 314.35 350.92 314.36 350.96 314.38 350.99C 314.39 351.02 314.41 351.06 314.43 351.09C 314.45 351.12 314.48 351.16 314.52 351.2L314.52 351.2L315.66 352.37C 315.92 352.64 316.13 352.88 316.29 353.09C 316.45 353.31 316.57 353.5 316.66 353.68C 316.74 353.85 316.8 354.01 316.83 354.16C 316.85 354.3 316.87 354.43 316.87 354.56C 316.87 354.69 316.84 354.81 316.8 354.92C 316.76 355.03 316.7 355.13 316.62 355.22C 316.54 355.3 316.44 355.37 316.32 355.42C 316.2 355.47 316.06 355.49 315.9 355.49C 315.72 355.49 315.55 355.47 315.4 355.42C 315.26 355.37 315.13 355.31 315.02 355.25C 314.91 355.2 314.82 355.14 314.74 355.09C 314.67 355.04 314.61 355.02 314.58 355.02C 314.55 355.02 314.54 355.02 314.52 355.03C 314.5 355.05 314.49 355.07 314.48 355.09C 314.47 355.12 314.46 355.15 314.45 355.2C 314.45 355.24 314.44 355.29 314.44 355.36C 314.44 355.4 314.45 355.44 314.45 355.47C 314.45 355.5 314.46 355.53 314.46 355.55C 314.47 355.58 314.48 355.6 314.49 355.62C 314.5 355.64 314.53 355.67 314.56 355.7C 314.6 355.73 314.66 355.77 314.75 355.82C 314.83 355.87 314.94 355.93 315.07 355.98C 315.2 356.03 315.34 356.07 315.5 356.11C 315.66 356.14 315.82 356.16 316 356.16zM312.17 356.16C 312.28 356.16 312.39 356.15 312.5 356.14C 312.61 356.12 312.72 356.1 312.81 356.08C 312.9 356.06 312.98 356.04 313.05 356.01C 313.11 355.98 313.15 355.96 313.17 355.95C 313.2 355.93 313.21 355.91 313.22 355.89C 313.23 355.88 313.24 355.85 313.24 355.83C 313.25 355.81 313.26 355.79 313.26 355.76C 313.26 355.73 313.26 355.7 313.26 355.65C 313.26 355.6 313.26 355.56 313.26 355.52C 313.26 355.48 313.25 355.45 313.24 355.43C 313.23 355.4 313.22 355.39 313.2 355.37C 313.19 355.36 313.17 355.36 313.14 355.36C 313.11 355.36 313.06 355.37 313.01 355.39C 312.95 355.41 312.88 355.43 312.81 355.45C 312.73 355.48 312.63 355.5 312.52 355.52C 312.4 355.54 312.27 355.55 312.12 355.55C 311.85 355.55 311.62 355.5 311.42 355.39C 311.22 355.28 311.06 355.13 310.94 354.94C 310.82 354.75 310.72 354.53 310.66 354.29C 310.6 354.04 310.57 353.78 310.56 353.51C 310.64 353.55 310.72 353.6 310.82 353.64C 310.91 353.69 311.02 353.73 311.13 353.76C 311.24 353.8 311.36 353.82 311.49 353.85C 311.61 353.87 311.75 353.88 311.89 353.88C 312.2 353.88 312.46 353.84 312.67 353.75C 312.88 353.67 313.05 353.55 313.18 353.41C 313.31 353.26 313.4 353.08 313.46 352.88C 313.52 352.68 313.54 352.47 313.54 352.23C 313.54 351.98 313.51 351.74 313.43 351.51C 313.35 351.28 313.24 351.07 313.08 350.89C 312.92 350.72 312.72 350.57 312.48 350.47C 312.23 350.36 311.95 350.31 311.61 350.31C 311.38 350.31 311.17 350.34 310.99 350.39C 310.8 350.45 310.65 350.54 310.51 350.64C 310.38 350.75 310.26 350.89 310.18 351.04C 310.09 351.2 310.01 351.38 309.96 351.59C 309.91 351.79 309.87 352.01 309.84 352.25C 309.82 352.49 309.81 352.75 309.81 353.02C 309.81 353.27 309.82 353.51 309.85 353.76C 309.87 354.01 309.92 354.25 309.99 354.48C 310.06 354.71 310.15 354.93 310.26 355.13C 310.38 355.34 310.52 355.51 310.7 355.67C 310.87 355.82 311.08 355.94 311.32 356.02C 311.57 356.11 311.85 356.16 312.17 356.16zM311.76 353.28C 311.65 353.28 311.54 353.27 311.43 353.25C 311.32 353.23 311.22 353.21 311.12 353.17C 311.01 353.14 310.92 353.1 310.83 353.06C 310.73 353.01 310.65 352.96 310.57 352.91C 310.57 352.53 310.6 352.21 310.65 351.96C 310.69 351.7 310.76 351.5 310.86 351.35C 310.95 351.19 311.06 351.08 311.2 351.02C 311.34 350.95 311.5 350.92 311.68 350.92C 311.87 350.92 312.03 350.95 312.17 351.02C 312.31 351.09 312.42 351.19 312.52 351.31C 312.61 351.42 312.67 351.56 312.72 351.71C 312.76 351.85 312.78 352.01 312.78 352.16C 312.78 352.33 312.76 352.49 312.73 352.62C 312.69 352.76 312.64 352.88 312.56 352.98C 312.48 353.07 312.37 353.15 312.24 353.2C 312.11 353.26 311.95 353.28 311.76 353.28z" stroke="none" fill="url(#12671)" /><path transform="matrix(1 0 0 -1 0 842)" d="M207.25 329.79L209.77 329.79C 209.79 329.79 209.82 329.78 209.84 329.77C 209.86 329.76 209.88 329.74 209.89 329.71C 209.91 329.68 209.92 329.65 209.93 329.61C 209.93 329.57 209.94 329.52 209.94 329.46C 209.94 329.36 209.92 329.28 209.9 329.22C 209.87 329.16 209.83 329.13 209.78 329.13L209.78 329.13L207.74 329.13L207.74 329.13L207.74 327.54C 207.84 327.55 207.94 327.56 208.05 327.56C 208.15 327.56 208.27 327.57 208.41 327.57C 208.72 327.57 208.99 327.53 209.23 327.45C 209.46 327.37 209.66 327.26 209.81 327.12C 209.97 326.98 210.09 326.81 210.17 326.6C 210.25 326.4 210.29 326.18 210.29 325.93C 210.29 325.63 210.24 325.36 210.14 325.12C 210.03 324.88 209.89 324.68 209.7 324.52C 209.51 324.36 209.29 324.23 209.03 324.15C 208.77 324.06 208.48 324.02 208.17 324.02C 207.99 324.02 207.82 324.03 207.67 324.06C 207.51 324.08 207.37 324.11 207.24 324.15C 207.12 324.19 207.02 324.22 206.94 324.26C 206.86 324.29 206.81 324.32 206.79 324.34C 206.77 324.36 206.75 324.38 206.74 324.4C 206.73 324.42 206.73 324.44 206.72 324.46C 206.71 324.49 206.71 324.52 206.7 324.56C 206.7 324.59 206.7 324.64 206.7 324.69C 206.7 324.74 206.7 324.79 206.71 324.83C 206.71 324.87 206.72 324.9 206.73 324.92C 206.74 324.95 206.76 324.97 206.77 324.98C 206.79 324.99 206.81 325 206.83 325C 206.86 325 206.9 324.98 206.96 324.94C 207.02 324.9 207.11 324.86 207.21 324.82C 207.31 324.78 207.44 324.74 207.6 324.7C 207.75 324.66 207.93 324.64 208.14 324.64C 208.34 324.64 208.52 324.67 208.69 324.71C 208.85 324.76 208.99 324.83 209.11 324.93C 209.23 325.03 209.32 325.16 209.39 325.31C 209.46 325.46 209.49 325.64 209.49 325.86C 209.49 326.04 209.46 326.2 209.4 326.34C 209.35 326.48 209.26 326.6 209.14 326.69C 209.02 326.78 208.87 326.85 208.69 326.9C 208.51 326.94 208.29 326.96 208.04 326.96C 207.86 326.96 207.71 326.96 207.58 326.94C 207.45 326.92 207.33 326.91 207.22 326.91C 207.14 326.91 207.08 326.93 207.04 326.97C 207.01 327.01 206.99 327.08 206.99 327.19L206.99 327.19L206.99 329.5C 206.99 329.6 207.01 329.67 207.06 329.72C 207.1 329.77 207.17 329.79 207.25 329.79z" stroke="none" fill="url(#12914)" /><path transform="matrix(1 0 0 -1 0 842)" d="M192.32 371.08C 192.39 371.08 192.45 371.08 192.5 371.07C 192.54 371.06 192.58 371.06 192.61 371.05C 192.63 371.04 192.65 371.02 192.66 371.01C 192.67 370.99 192.67 370.97 192.67 370.96L192.67 370.96L192.67 365.96L192.67 365.96L193.7 365.96C 193.72 365.96 193.75 365.95 193.77 365.94C 193.79 365.93 193.8 365.91 193.82 365.88C 193.83 365.86 193.84 365.83 193.85 365.79C 193.86 365.75 193.86 365.71 193.86 365.65C 193.86 365.6 193.85 365.55 193.85 365.51C 193.84 365.47 193.83 365.44 193.81 365.42C 193.8 365.4 193.78 365.38 193.76 365.37C 193.74 365.36 193.72 365.35 193.7 365.35L193.7 365.35L190.73 365.35C 190.71 365.35 190.69 365.36 190.67 365.37C 190.66 365.38 190.64 365.4 190.62 365.42C 190.61 365.44 190.59 365.47 190.58 365.51C 190.58 365.55 190.57 365.6 190.57 365.65C 190.57 365.71 190.58 365.75 190.58 365.79C 190.59 365.83 190.6 365.86 190.62 365.88C 190.63 365.91 190.65 365.93 190.67 365.94C 190.69 365.95 190.71 365.96 190.73 365.96L190.73 365.96L191.92 365.96L191.92 365.96L191.92 370.28L191.92 370.28L190.82 369.63C 190.76 369.6 190.72 369.58 190.68 369.58C 190.65 369.57 190.62 369.58 190.6 369.6C 190.58 369.62 190.57 369.65 190.56 369.69C 190.55 369.73 190.55 369.79 190.55 369.86C 190.55 369.91 190.55 369.95 190.56 369.99C 190.56 370.02 190.57 370.05 190.58 370.07C 190.58 370.1 190.6 370.12 190.61 370.13C 190.63 370.15 190.65 370.17 190.68 370.19L190.68 370.19L191.99 371.03C 192 371.04 192.01 371.04 192.03 371.05C 192.05 371.05 192.07 371.06 192.1 371.07C 192.12 371.07 192.15 371.08 192.19 371.08C 192.22 371.08 192.27 371.08 192.32 371.08zM195.28 371.04L197.8 371.04C 197.82 371.04 197.85 371.03 197.87 371.02C 197.89 371.01 197.91 370.99 197.92 370.96C 197.94 370.93 197.95 370.9 197.96 370.86C 197.96 370.82 197.97 370.77 197.97 370.71C 197.97 370.61 197.95 370.53 197.93 370.47C 197.9 370.41 197.86 370.38 197.81 370.38L197.81 370.38L195.77 370.38L195.77 370.38L195.77 368.79C 195.87 368.8 195.97 368.81 196.08 368.81C 196.18 368.81 196.3 368.82 196.44 368.82C 196.75 368.82 197.02 368.78 197.26 368.7C 197.49 368.62 197.69 368.51 197.84 368.37C 198 368.23 198.12 368.06 198.2 367.85C 198.28 367.65 198.32 367.43 198.32 367.18C 198.32 366.88 198.27 366.61 198.17 366.37C 198.06 366.13 197.92 365.93 197.73 365.77C 197.54 365.61 197.32 365.48 197.06 365.4C 196.8 365.31 196.51 365.27 196.2 365.27C 196.02 365.27 195.85 365.28 195.7 365.31C 195.54 365.33 195.4 365.36 195.27 365.4C 195.15 365.44 195.05 365.47 194.97 365.51C 194.89 365.54 194.84 365.57 194.82 365.59C 194.8 365.61 194.78 365.63 194.77 365.65C 194.76 365.67 194.76 365.69 194.75 365.71C 194.74 365.74 194.74 365.77 194.73 365.81C 194.73 365.84 194.73 365.89 194.73 365.94C 194.73 365.99 194.73 366.04 194.74 366.08C 194.74 366.12 194.75 366.15 194.76 366.17C 194.77 366.2 194.79 366.22 194.8 366.23C 194.82 366.24 194.84 366.25 194.86 366.25C 194.89 366.25 194.93 366.23 194.99 366.19C 195.05 366.15 195.14 366.11 195.24 366.07C 195.34 366.03 195.47 365.99 195.63 365.95C 195.78 365.91 195.96 365.89 196.17 365.89C 196.37 365.89 196.55 365.92 196.72 365.96C 196.88 366.01 197.02 366.08 197.14 366.18C 197.26 366.28 197.35 366.41 197.42 366.56C 197.49 366.71 197.52 366.89 197.52 367.11C 197.52 367.29 197.49 367.45 197.43 367.59C 197.38 367.73 197.29 367.85 197.17 367.94C 197.05 368.03 196.9 368.1 196.72 368.15C 196.54 368.19 196.32 368.21 196.07 368.21C 195.89 368.21 195.74 368.21 195.61 368.19C 195.48 368.17 195.36 368.16 195.25 368.16C 195.17 368.16 195.11 368.18 195.07 368.22C 195.04 368.26 195.02 368.33 195.02 368.44L195.02 368.44L195.02 370.75C 195.02 370.85 195.04 370.92 195.09 370.97C 195.13 371.02 195.2 371.04 195.28 371.04z" stroke="none" fill="url(#13156)" /><path transform="matrix(1 0 0 -1 0 842)" d="M231.11 431.87C 231.4 431.87 231.65 431.84 231.86 431.77C 232.07 431.7 232.24 431.61 232.38 431.49C 232.51 431.37 232.61 431.23 232.68 431.07C 232.74 430.91 232.78 430.74 232.78 430.55C 232.78 430.4 232.75 430.26 232.7 430.12C 232.65 429.98 232.58 429.85 232.49 429.73C 232.4 429.61 232.28 429.49 232.14 429.38C 232.01 429.28 231.85 429.18 231.68 429.08C 231.88 428.98 232.07 428.88 232.23 428.77C 232.4 428.66 232.53 428.54 232.64 428.42C 232.75 428.29 232.83 428.16 232.89 428.02C 232.95 427.88 232.98 427.73 232.98 427.56C 232.98 427.32 232.93 427.1 232.85 426.91C 232.76 426.71 232.63 426.55 232.47 426.42C 232.3 426.29 232.1 426.19 231.85 426.12C 231.61 426.05 231.33 426.02 231.02 426.02C 230.72 426.02 230.46 426.05 230.23 426.11C 230 426.17 229.8 426.26 229.64 426.38C 229.48 426.5 229.36 426.65 229.27 426.83C 229.19 427 229.15 427.21 229.15 427.43C 229.15 427.61 229.17 427.77 229.23 427.92C 229.29 428.07 229.38 428.21 229.49 428.34C 229.6 428.46 229.73 428.58 229.89 428.69C 230.05 428.8 230.24 428.9 230.44 429C 230.26 429.09 230.11 429.19 229.97 429.29C 229.84 429.39 229.72 429.5 229.63 429.62C 229.54 429.74 229.46 429.87 229.42 430C 229.37 430.14 229.34 430.28 229.34 430.44C 229.34 430.64 229.38 430.83 229.45 431C 229.52 431.18 229.63 431.33 229.78 431.46C 229.92 431.58 230.11 431.69 230.33 431.76C 230.55 431.84 230.82 431.87 231.11 431.87zM226.82 431.83C 226.89 431.83 226.95 431.83 227 431.82C 227.04 431.81 227.08 431.81 227.11 431.8C 227.13 431.79 227.15 431.77 227.16 431.76C 227.17 431.74 227.17 431.72 227.17 431.71L227.17 431.71L227.17 426.71L227.17 426.71L228.2 426.71C 228.22 426.71 228.25 426.7 228.27 426.69C 228.29 426.68 228.3 426.66 228.32 426.63C 228.33 426.61 228.34 426.58 228.35 426.54C 228.36 426.5 228.36 426.46 228.36 426.4C 228.36 426.35 228.35 426.3 228.35 426.26C 228.34 426.22 228.33 426.19 228.31 426.17C 228.3 426.15 228.28 426.13 228.26 426.12C 228.24 426.11 228.22 426.1 228.2 426.1L228.2 426.1L225.23 426.1C 225.21 426.1 225.19 426.11 225.17 426.12C 225.16 426.13 225.14 426.15 225.12 426.17C 225.11 426.19 225.09 426.22 225.08 426.26C 225.08 426.3 225.07 426.35 225.07 426.4C 225.07 426.46 225.08 426.5 225.08 426.54C 225.09 426.58 225.1 426.61 225.12 426.63C 225.13 426.66 225.15 426.68 225.17 426.69C 225.19 426.7 225.21 426.71 225.23 426.71L225.23 426.71L226.42 426.71L226.42 426.71L226.42 431.03L226.42 431.03L225.32 430.38C 225.26 430.35 225.22 430.33 225.18 430.33C 225.15 430.32 225.12 430.33 225.1 430.35C 225.08 430.37 225.07 430.4 225.06 430.44C 225.05 430.48 225.05 430.54 225.05 430.61C 225.05 430.66 225.05 430.7 225.06 430.74C 225.06 430.77 225.07 430.8 225.08 430.82C 225.08 430.85 225.1 430.87 225.11 430.88C 225.13 430.9 225.15 430.92 225.18 430.94L225.18 430.94L226.49 431.78C 226.5 431.79 226.51 431.79 226.53 431.8C 226.55 431.8 226.57 431.81 226.6 431.82C 226.62 431.82 226.65 431.83 226.69 431.83C 226.72 431.83 226.77 431.83 226.82 431.83zM231.06 431.28C 230.74 431.28 230.5 431.21 230.34 431.07C 230.18 430.93 230.09 430.73 230.09 430.48C 230.09 430.37 230.11 430.26 230.15 430.16C 230.19 430.06 230.26 429.97 230.34 429.88C 230.42 429.79 230.53 429.71 230.65 429.63C 230.78 429.54 230.93 429.46 231.11 429.36C 231.41 429.52 231.63 429.69 231.79 429.87C 231.95 430.05 232.03 430.26 232.03 430.48C 232.03 430.6 232.01 430.71 231.96 430.81C 231.92 430.91 231.86 431 231.78 431.07C 231.7 431.14 231.59 431.19 231.47 431.23C 231.35 431.27 231.21 431.28 231.06 431.28zM231.01 428.71C 230.82 428.62 230.66 428.53 230.52 428.44C 230.38 428.35 230.27 428.26 230.18 428.16C 230.09 428.06 230.02 427.96 229.98 427.85C 229.93 427.75 229.91 427.63 229.91 427.5C 229.91 427.22 230.01 427 230.2 426.84C 230.4 426.69 230.69 426.61 231.07 426.61C 231.45 426.61 231.73 426.69 231.92 426.84C 232.12 427 232.21 427.21 232.21 427.48C 232.21 427.62 232.19 427.74 232.14 427.85C 232.09 427.96 232.01 428.06 231.91 428.16C 231.81 428.25 231.68 428.35 231.53 428.43C 231.38 428.52 231.21 428.62 231.01 428.71z" stroke="none" fill="url(#13397)" /><g clip-path="url(#70)"></g><path transform="matrix(1 0 0 -1 0 842)" d="M175.49 256.57L180.4333 256.57L180.4333 256.57L180.4333 261.5133L180.4333 261.5133L175.49 261.5133z" stroke="none" fill="#5B9BD5" fill-rule="evenodd" /><path transform="matrix(1 0 0 -1 0 842)" d="M175.49 256.57L180.4333 256.57L180.4333 256.57L180.4333 261.5133L180.4333 261.5133L175.49 261.5133z" stroke="#FFFFFF" stroke-width="1.5" fill="none" /><g clip-path="url(#71)"></g><path transform="matrix(1 0 0 -1 0 842)" d="M219 256.57L223.9433 256.57L223.9433 256.57L223.9433 261.5133L223.9433 261.5133L219 261.5133z" stroke="none" fill="#ED7D31" fill-rule="evenodd" /><path transform="matrix(1 0 0 -1 0 842)" d="M219 256.57L223.9433 256.57L223.9433 256.57L223.9433 261.5133L223.9433 261.5133L219 261.5133z" stroke="#FFFFFF" stroke-width="1.5" fill="none" /><g clip-path="url(#72)"></g><path transform="matrix(1 0 0 -1 0 842)" d="M262.51 256.57L267.4533 256.57L267.4533 256.57L267.4533 261.5133L267.4533 261.5133L262.51 261.5133z" stroke="none" fill="#A5A5A5" fill-rule="evenodd" /><path transform="matrix(1 0 0 -1 0 842)" d="M262.51 256.57L267.4533 256.57L267.4533 256.57L267.4533 261.5133L267.4533 261.5133L262.51 261.5133z" stroke="#FFFFFF" stroke-width="1.5" fill="none" /><g clip-path="url(#73)"></g><path transform="matrix(1 0 0 -1 0 842)" d="M306.02 256.57L310.9633 256.57L310.9633 256.57L310.9633 261.5133L310.9633 261.5133L306.02 261.5133z" stroke="none" fill="#FFC000" fill-rule="evenodd" /><path transform="matrix(1 0 0 -1 0 842)" d="M306.02 256.57L310.9633 256.57L310.9633 256.57L310.9633 261.5133L310.9633 261.5133L306.02 261.5133z" stroke="#FFFFFF" stroke-width="1.5" fill="none" /><g clip-path="url(#74)"></g><path transform="matrix(1 0 0 -1 0 842)" d="M111.35 244.6L418.6 244.6L418.6 244.6L418.6 501.1L418.6 501.1L111.35 501.1z" stroke="#D9D9D9" stroke-width="0.75075" fill="none" /></g></g></g></svg>