<svg xmlns="http://www.w3.org/2000/svg" xmlns:xlink="http://www.w3.org/1999/xlink" id="body_6" preserveAspectRatio="xMinYMin meet" viewBox="0 0 793 1123"><defs><clipPath id="1"><path clip-rule="evenodd" d="M0 842L0 -0.25L0 -0.25L595.5 -0.25L595.5 -0.25L595.5 842L595.5 842L0 842z" /></clipPath><clipPath id="2"><path clip-rule="evenodd" d="M8.874E-06 842L595.5 842L595.5 842L595.5 -0.25L595.5 -0.25L8.874E-06 -0.25z" /></clipPath><clipPath id="3"><path clip-rule="evenodd" d="M8.874E-06 842L595.5 842L595.5 842L595.5 -0.25L595.5 -0.25L8.874E-06 -0.25z" /></clipPath><clipPath id="4"><path clip-rule="evenodd" d="M8.874E-06 842L595.5 842L595.5 842L595.5 -0.25L595.5 -0.25L8.874E-06 -0.25z" /></clipPath><clipPath id="5"><path clip-rule="evenodd" d="M8.874E-06 842L595.5 842L595.5 842L595.5 -0.25L595.5 -0.25L8.874E-06 -0.25z" /></clipPath><clipPath id="6"><path clip-rule="evenodd" d="M8.874E-06 842L595.5 842L595.5 842L595.5 -0.25L595.5 -0.25L8.874E-06 -0.25z" /></clipPath><clipPath id="7"><path clip-rule="evenodd" d="M8.874E-06 842L595.5 842L595.5 842L595.5 -0.25L595.5 -0.25L8.874E-06 -0.25z" /></clipPath><clipPath id="8"><path clip-rule="evenodd" d="M8.874E-06 842L595.5 842L595.5 842L595.5 -0.25L595.5 -0.25L8.874E-06 -0.25z" /></clipPath><clipPath id="9"><path clip-rule="evenodd" d="M8.874E-06 842L595.5 842L595.5 842L595.5 -0.25L595.5 -0.25L8.874E-06 -0.25z" /></clipPath><clipPath id="10"><path clip-rule="evenodd" d="M8.874E-06 842L595.5 842L595.5 842L595.5 -0.25L595.5 -0.25L8.874E-06 -0.25z" /></clipPath><clipPath id="11"><path clip-rule="evenodd" d="M8.874E-06 842L595.5 842L595.5 842L595.5 -0.25L595.5 -0.25L8.874E-06 -0.25z" /></clipPath><clipPath id="12"><path clip-rule="evenodd" d="M8.874E-06 842L595.5 842L595.5 842L595.5 -0.25L595.5 -0.25L8.874E-06 -0.25z" /></clipPath><clipPath id="13"><path clip-rule="evenodd" d="M8.874E-06 842L595.5 842L595.5 842L595.5 -0.25L595.5 -0.25L8.874E-06 -0.25z" /></clipPath><clipPath id="14"><path clip-rule="evenodd" d="M8.874E-06 842L595.5 842L595.5 842L595.5 -0.25L595.5 -0.25L8.874E-06 -0.25z" /></clipPath><clipPath id="15"><path clip-rule="evenodd" d="M8.874E-06 842L595.5 842L595.5 842L595.5 -0.25L595.5 -0.25L8.874E-06 -0.25z" /></clipPath><clipPath id="16"><path clip-rule="evenodd" d="M8.874E-06 842L595.5 842L595.5 842L595.5 -0.25L595.5 -0.25L8.874E-06 -0.25z" /></clipPath><clipPath id="17"><path clip-rule="evenodd" d="M8.874E-06 842L595.5 842L595.5 842L595.5 -0.25L595.5 -0.25L8.874E-06 -0.25z" /></clipPath><clipPath id="18"><path clip-rule="evenodd" d="M8.874E-06 842L595.5 842L595.5 842L595.5 -0.25L595.5 -0.25L8.874E-06 -0.25z" /></clipPath><clipPath id="19"><path clip-rule="evenodd" d="M8.874E-06 842L595.5 842L595.5 842L595.5 -0.25L595.5 -0.25L8.874E-06 -0.25z" /></clipPath><clipPath id="20"><path clip-rule="evenodd" d="M8.874E-06 842L595.5 842L595.5 842L595.5 -0.25L595.5 -0.25L8.874E-06 -0.25z" /></clipPath><clipPath id="21"><path clip-rule="evenodd" d="M8.874E-06 842L595.5 842L595.5 842L595.5 -0.25L595.5 -0.25L8.874E-06 -0.25z" /></clipPath><clipPath id="22"><path clip-rule="evenodd" d="M8.874E-06 842L595.5 842L595.5 842L595.5 -0.25L595.5 -0.25L8.874E-06 -0.25z" /></clipPath><clipPath id="23"><path clip-rule="evenodd" d="M0 196.25L595.5 196.25L595.5 196.25L595.5 71.75L595.5 71.75L0 71.75z" /></clipPath><clipPath id="24"><path clip-rule="evenodd" d="M8.874E-06 415.25L595.5 415.25L595.5 415.25L595.5 227.75L595.5 227.75L8.874E-06 227.75z" /></clipPath><clipPath id="25"><path clip-rule="evenodd" d="M8.874E-06 493.25L595.5 493.25L595.5 493.25L595.5 415.25L595.5 415.25L8.874E-06 415.25z" /></clipPath><clipPath id="26"><path clip-rule="evenodd" d="M0 571.25L595.5 571.25L595.5 571.25L595.5 539.75L595.5 539.75L0 539.75z" /></clipPath><clipPath id="27"><path clip-rule="evenodd" d="M1.7747E-05 602L595.5 602L595.5 602L595.5 571.25L595.5 571.25L1.7747E-05 571.25z" /></clipPath><clipPath id="28"><path clip-rule="evenodd" d="M8.874E-06 773.75L595.5 773.75L595.5 773.75L595.5 602L595.5 602L8.874E-06 602z" /></clipPath><clipPath id="29"><path clip-rule="evenodd" d="M115.65 562.75L357.45 562.75L357.45 562.75L357.45 547L357.45 547L115.65 547z" /></clipPath><clipPath id="30"><path clip-rule="evenodd" d="M115.65 562.75L357.45 562.75L357.45 562.75L357.45 547L357.45 547L115.65 547z" /></clipPath><clipPath id="31"><path clip-rule="evenodd" d="M115.65 562.75L357.45 562.75L357.45 562.75L357.45 547L357.45 547L115.65 547z" /></clipPath><clipPath id="32"><path clip-rule="evenodd" d="M115.65 562.75L357.45 562.75L357.45 562.75L357.45 547L357.45 547L115.65 547z" /></clipPath><clipPath id="33"><path clip-rule="evenodd" d="M115.65 562.75L357.45 562.75L357.45 562.75L357.45 547L357.45 547L115.65 547z" /></clipPath><clipPath id="34"><path clip-rule="evenodd" d="M115.65 562.75L357.45 562.75L357.45 562.75L357.45 547L357.45 547L115.65 547z" /></clipPath><clipPath id="35"><path clip-rule="evenodd" d="M115.65 562.75L357.45 562.75L357.45 562.75L357.45 547L357.45 547L115.65 547z" /></clipPath><clipPath id="36"><path clip-rule="evenodd" d="M115.65 595.03L256.83 595.03L256.83 595.03L256.83 578.53L256.83 578.53L115.65 578.53z" /></clipPath><clipPath id="37"><path clip-rule="evenodd" d="M115.65 595.03L256.83 595.03L256.83 595.03L256.83 578.53L256.83 578.53L115.65 578.53z" /></clipPath><clipPath id="38"><path clip-rule="evenodd" d="M115.65 595.03L256.83 595.03L256.83 595.03L256.83 578.53L256.83 578.53L115.65 578.53z" /></clipPath><clipPath id="39"><path clip-rule="evenodd" d="M115.65 595.03L256.83 595.03L256.83 595.03L256.83 578.53L256.83 578.53L115.65 578.53z" /></clipPath><clipPath id="40"><path clip-rule="evenodd" d="M115.65 595.03L256.83 595.03L256.83 595.03L256.83 578.53L256.83 578.53L115.65 578.53z" /></clipPath><clipPath id="41"><path clip-rule="evenodd" d="M115.65 595.03L256.83 595.03L256.83 595.03L256.83 578.53L256.83 578.53L115.65 578.53z" /></clipPath></defs><g transform="matrix(1.333333 0 0 1.333333 0 0)"><g><g clip-path="url(#1)"><g clip-path="url(#2)"></g><g clip-path="url(#3)"></g><g clip-path="url(#4)"></g><g clip-path="url(#5)"></g><g clip-path="url(#6)"></g><g clip-path="url(#7)"></g><g clip-path="url(#8)"></g><g clip-path="url(#9)"></g><g clip-path="url(#10)"></g><g clip-path="url(#11)"></g><g clip-path="url(#12)"></g><g clip-path="url(#13)"></g><g clip-path="url(#14)"></g><g clip-path="url(#15)"></g><g clip-path="url(#16)"></g><g clip-path="url(#17)"></g><g clip-path="url(#18)"></g><g clip-path="url(#19)"></g><g clip-path="url(#20)"></g><g clip-path="url(#21)"></g><g clip-path="url(#22)"></g><g clip-path="url(#23)"><g transform="matrix(0.3272592 0 0 0.327321 186.65 71.89996)"><g transform="matrix(1 0 0 1 0 0)"><image x="0" y="0" xlink:href="img_18.png" width="675" height="377" /></g></g></g><g clip-path="url(#24)"><g transform="matrix(0.4562427 0 0 0.45625 90 235.1)"><g transform="matrix(1 0 0 1 0 0)"><image x="0" y="0" xlink:href="img_19.png" width="849" height="376" /></g></g></g><g clip-path="url(#25)"><g transform="matrix(0.3273224 0 0 0.3265027 90 431.75)"><g transform="matrix(1 0 0 1 0 0)"><image x="0" y="0" xlink:href="img_20.png" width="183" height="183" /></g></g></g><g clip-path="url(#26)"><g transform="matrix(0.3285714 0 0 0.3263513 90 542.6)"><g transform="matrix(1 0 0 1 0 0)"><image x="0" y="0" xlink:href="img_21.png" width="56" height="74" /></g></g></g><g clip-path="url(#27)"><g transform="matrix(0.3298245 0 0 0.3290541 90 573.8)"><g transform="matrix(1 0 0 1 0 0)"><image x="0" y="0" xlink:href="img_22.png" width="57" height="74" /></g></g></g><g clip-path="url(#28)"><g transform="matrix(0.5051724 0 0 0.5052215 90 607.694)"><g transform="matrix(1 0 0 1 0 0)"><image x="0" y="0" xlink:href="img_23.png" width="435" height="316" /></g></g></g><path transform="matrix(1 0 0 -1 0 842)" d="M114.95 275.1L357.95 275.1L357.95 275.1L357.95 299.95L357.95 299.95L114.95 299.95z" stroke="none" fill="#5B9BD5" fill-rule="evenodd" /><path transform="matrix(1 0 0 -1 0 842)" d="M114.95 275.1L357.95 275.1L357.95 275.1L357.95 299.95L357.95 299.95L114.95 299.95z" stroke="#FFFFFF" stroke-width="1.5" fill="none" /><g clip-path="url(#29)"><g clip-path="url(#30)"></g><g clip-path="url(#31)"></g><g clip-path="url(#32)"></g><g clip-path="url(#33)"></g><g clip-path="url(#34)"></g><g clip-path="url(#35)"></g></g><path transform="matrix(1 0 0 -1 0 842)" d="M114.95 243.3L257.2 243.3L257.2 243.3L257.2 268.15L257.2 268.15L114.95 268.15z" stroke="none" fill="#ED7D31" fill-rule="evenodd" /><path transform="matrix(1 0 0 -1 0 842)" d="M114.95 243.3L257.2 243.3L257.2 243.3L257.2 268.15L257.2 268.15L114.95 268.15z" stroke="#FFFFFF" stroke-width="1.5" fill="none" /><g clip-path="url(#36)"><g clip-path="url(#37)"></g><g clip-path="url(#38)"></g><g clip-path="url(#39)"></g><g clip-path="url(#40)"></g><g clip-path="url(#41)"></g></g></g></g></g></svg>