<svg xmlns="http://www.w3.org/2000/svg" xmlns:xlink="http://www.w3.org/1999/xlink" id="body_7" preserveAspectRatio="xMinYMin meet" viewBox="0 0 793 1123"><defs><clipPath id="1"><path clip-rule="evenodd" d="M0 842L0 -0.25L0 -0.25L595.5 -0.25L595.5 -0.25L595.5 842L595.5 842L0 842z" /></clipPath><clipPath id="2"><path clip-rule="evenodd" d="M8.874E-06 842L595.5 842L595.5 842L595.5 -0.25L595.5 -0.25L8.874E-06 -0.25z" /></clipPath><clipPath id="3"><path clip-rule="evenodd" d="M8.874E-06 842L595.5 842L595.5 842L595.5 -0.25L595.5 -0.25L8.874E-06 -0.25z" /></clipPath><clipPath id="4"><path clip-rule="evenodd" d="M8.874E-06 842L595.5 842L595.5 842L595.5 -0.25L595.5 -0.25L8.874E-06 -0.25z" /></clipPath><clipPath id="5"><path clip-rule="evenodd" d="M8.874E-06 842L595.5 842L595.5 842L595.5 -0.25L595.5 -0.25L8.874E-06 -0.25z" /></clipPath><clipPath id="6"><path clip-rule="evenodd" d="M8.874E-06 842L595.5 842L595.5 842L595.5 -0.25L595.5 -0.25L8.874E-06 -0.25z" /></clipPath><clipPath id="7"><path clip-rule="evenodd" d="M8.874E-06 842L595.5 842L595.5 842L595.5 -0.25L595.5 -0.25L8.874E-06 -0.25z" /></clipPath><clipPath id="8"><path clip-rule="evenodd" d="M8.874E-06 842L595.5 842L595.5 842L595.5 -0.25L595.5 -0.25L8.874E-06 -0.25z" /></clipPath><clipPath id="9"><path clip-rule="evenodd" d="M8.874E-06 842L595.5 842L595.5 842L595.5 -0.25L595.5 -0.25L8.874E-06 -0.25z" /></clipPath><clipPath id="10"><path clip-rule="evenodd" d="M8.874E-06 842L595.5 842L595.5 842L595.5 -0.25L595.5 -0.25L8.874E-06 -0.25z" /></clipPath><clipPath id="11"><path clip-rule="evenodd" d="M8.874E-06 842L595.5 842L595.5 842L595.5 -0.25L595.5 -0.25L8.874E-06 -0.25z" /></clipPath><clipPath id="12"><path clip-rule="evenodd" d="M8.874E-06 842L595.5 842L595.5 842L595.5 -0.25L595.5 -0.25L8.874E-06 -0.25z" /></clipPath><clipPath id="13"><path clip-rule="evenodd" d="M8.874E-06 842L595.5 842L595.5 842L595.5 -0.25L595.5 -0.25L8.874E-06 -0.25z" /></clipPath><clipPath id="14"><path clip-rule="evenodd" d="M8.874E-06 842L595.5 842L595.5 842L595.5 -0.25L595.5 -0.25L8.874E-06 -0.25z" /></clipPath><clipPath id="15"><path clip-rule="evenodd" d="M8.874E-06 842L595.5 842L595.5 842L595.5 -0.25L595.5 -0.25L8.874E-06 -0.25z" /></clipPath><clipPath id="16"><path clip-rule="evenodd" d="M8.874E-06 842L595.5 842L595.5 842L595.5 -0.25L595.5 -0.25L8.874E-06 -0.25z" /></clipPath><clipPath id="17"><path clip-rule="evenodd" d="M8.874E-06 842L595.5 842L595.5 842L595.5 -0.25L595.5 -0.25L8.874E-06 -0.25z" /></clipPath><clipPath id="18"><path clip-rule="evenodd" d="M8.874E-06 842L595.5 842L595.5 842L595.5 -0.25L595.5 -0.25L8.874E-06 -0.25z" /></clipPath><clipPath id="19"><path clip-rule="evenodd" d="M8.874E-06 842L595.5 842L595.5 842L595.5 -0.25L595.5 -0.25L8.874E-06 -0.25z" /></clipPath><clipPath id="20"><path clip-rule="evenodd" d="M8.874E-06 842L595.5 842L595.5 842L595.5 -0.25L595.5 -0.25L8.874E-06 -0.25z" /></clipPath><clipPath id="21"><path clip-rule="evenodd" d="M8.874E-06 842L595.5 842L595.5 842L595.5 -0.25L595.5 -0.25L8.874E-06 -0.25z" /></clipPath><clipPath id="22"><path clip-rule="evenodd" d="M8.874E-06 842L595.5 842L595.5 842L595.5 -0.25L595.5 -0.25L8.874E-06 -0.25z" /></clipPath><clipPath id="23"><path clip-rule="evenodd" d="M8.874E-06 842L595.5 842L595.5 842L595.5 -0.25L595.5 -0.25L8.874E-06 -0.25z" /></clipPath><clipPath id="24"><path clip-rule="evenodd" d="M8.874E-06 842L595.5 842L595.5 842L595.5 -0.25L595.5 -0.25L8.874E-06 -0.25z" /></clipPath><clipPath id="25"><path clip-rule="evenodd" d="M8.874E-06 842L595.5 842L595.5 842L595.5 -0.25L595.5 -0.25L8.874E-06 -0.25z" /></clipPath><clipPath id="26"><path clip-rule="evenodd" d="M8.874E-06 842L595.5 842L595.5 842L595.5 -0.25L595.5 -0.25L8.874E-06 -0.25z" /></clipPath><clipPath id="27"><path clip-rule="evenodd" d="M8.874E-06 842L595.5 842L595.5 842L595.5 -0.25L595.5 -0.25L8.874E-06 -0.25z" /></clipPath><clipPath id="28"><path clip-rule="evenodd" d="M8.874E-06 842L595.5 842L595.5 842L595.5 -0.25L595.5 -0.25L8.874E-06 -0.25z" /></clipPath><clipPath id="29"><path clip-rule="evenodd" d="M8.874E-06 842L595.5 842L595.5 842L595.5 -0.25L595.5 -0.25L8.874E-06 -0.25z" /></clipPath><clipPath id="30"><path clip-rule="evenodd" d="M8.874E-06 842L595.5 842L595.5 842L595.5 -0.25L595.5 -0.25L8.874E-06 -0.25z" /></clipPath><clipPath id="31"><path clip-rule="evenodd" d="M8.874E-06 842L595.5 842L595.5 842L595.5 -0.25L595.5 -0.25L8.874E-06 -0.25z" /></clipPath><clipPath id="32"><path clip-rule="evenodd" d="M8.874E-06 103.25L595.5 103.25L595.5 103.25L595.5 71.75L595.5 71.75L8.874E-06 71.75z" /></clipPath><clipPath id="33"><path clip-rule="evenodd" d="M0 274.25L595.5 274.25L595.5 274.25L595.5 103.25L595.5 103.25L0 103.25z" /></clipPath><clipPath id="34"><path clip-rule="evenodd" d="M8.874E-06 305.75L595.5 305.75L595.5 305.75L595.5 274.25L595.5 274.25L8.874E-06 274.25z" /></clipPath><clipPath id="35"><path clip-rule="evenodd" d="M0 461.75L595.5 461.75L595.5 461.75L595.5 321.5L595.5 321.5L0 321.5z" /></clipPath><clipPath id="36"><path clip-rule="evenodd" d="M1.7747E-05 508.25L595.5 508.25L595.5 508.25L595.5 477.5L595.5 477.5L1.7747E-05 477.5z" /></clipPath><clipPath id="37"><path clip-rule="evenodd" d="M8.874E-06 758L595.5 758L595.5 758L595.5 602L595.5 602L8.874E-06 602z" /></clipPath><clipPath id="38"><path clip-rule="evenodd" d="M115.65 95.83002L343.2 95.83002L343.2 95.83002L343.2 79.33002L343.2 79.33002L115.65 79.33002z" /></clipPath><clipPath id="39"><path clip-rule="evenodd" d="M115.65 95.83002L343.2 95.83002L343.2 95.83002L343.2 79.33002L343.2 79.33002L115.65 79.33002z" /></clipPath><clipPath id="40"><path clip-rule="evenodd" d="M115.65 95.83002L343.2 95.83002L343.2 95.83002L343.2 79.33002L343.2 79.33002L115.65 79.33002z" /></clipPath><clipPath id="41"><path clip-rule="evenodd" d="M115.65 95.83002L343.2 95.83002L343.2 95.83002L343.2 79.33002L343.2 79.33002L115.65 79.33002z" /></clipPath><clipPath id="42"><path clip-rule="evenodd" d="M115.65 95.83002L343.2 95.83002L343.2 95.83002L343.2 79.33002L343.2 79.33002L115.65 79.33002z" /></clipPath><clipPath id="43"><path clip-rule="evenodd" d="M117.15 316.53L485.12 316.53L485.12 316.53L485.12 282.755L485.12 282.755L117.15 282.755z" /></clipPath><clipPath id="44"><path clip-rule="evenodd" d="M117.15 316.53L485.13 316.53L485.13 316.53L485.13 282.755L485.13 282.755L117.15 282.755z" /></clipPath><clipPath id="45"><path clip-rule="evenodd" d="M117.15 316.53L485.13 316.53L485.13 316.53L485.13 282.755L485.13 282.755L117.15 282.755z" /></clipPath><clipPath id="46"><path clip-rule="evenodd" d="M117.15 316.53L485.13 316.53L485.13 316.53L485.13 282.755L485.13 282.755L117.15 282.755z" /></clipPath><clipPath id="47"><path clip-rule="evenodd" d="M117.15 316.53L485.13 316.53L485.13 316.53L485.13 282.755L485.13 282.755L117.15 282.755z" /></clipPath><clipPath id="48"><path clip-rule="evenodd" d="M117.15 316.53L485.13 316.53L485.13 316.53L485.13 282.755L485.13 282.755L117.15 282.755z" /></clipPath><clipPath id="49"><path clip-rule="evenodd" d="M114.9 498.95L301.87 498.95L301.87 498.95L301.87 483.175L301.87 483.175L114.9 483.175z" /></clipPath><clipPath id="50"><path clip-rule="evenodd" d="M114.9 498.95L301.88 498.95L301.88 498.95L301.88 483.175L301.88 483.175L114.9 483.175z" /></clipPath><clipPath id="51"><path clip-rule="evenodd" d="M114.9 498.95L301.88 498.95L301.88 498.95L301.88 483.175L301.88 483.175L114.9 483.175z" /></clipPath></defs><g transform="matrix(1.333333 0 0 1.333333 0 0)"><g><g clip-path="url(#1)"><g clip-path="url(#2)"></g><g clip-path="url(#3)"></g><g clip-path="url(#4)"></g><g clip-path="url(#5)"></g><g clip-path="url(#6)"></g><g clip-path="url(#7)"></g><g clip-path="url(#8)"></g><g clip-path="url(#9)"></g><g clip-path="url(#10)"></g><g clip-path="url(#11)"></g><g clip-path="url(#12)"></g><g clip-path="url(#13)"></g><g clip-path="url(#14)"></g><g clip-path="url(#15)"></g><g clip-path="url(#16)"></g><g clip-path="url(#17)"></g><g clip-path="url(#18)"></g><g clip-path="url(#19)"></g><g clip-path="url(#20)"></g><g clip-path="url(#21)"></g><g clip-path="url(#22)"></g><g clip-path="url(#23)"></g><g clip-path="url(#24)"></g><g clip-path="url(#25)"></g><g clip-path="url(#26)"></g><g clip-path="url(#27)"></g><g clip-path="url(#28)"></g><g clip-path="url(#29)"></g><g clip-path="url(#30)"></g><g clip-path="url(#31)"></g><g clip-path="url(#32)"><g transform="matrix(0.329661 0 0 0.3268116 90 75.35004)"><g transform="matrix(1 0 0 1 0 0)"><image x="0" y="0" xlink:href="img_25.png" width="59" height="69" /></g></g></g><g clip-path="url(#33)"><g transform="matrix(0.3274775 0 0 0.3272727 90 109.25)"><g transform="matrix(1 0 0 1 0 0)"><image x="0" y="0" xlink:href="img_26.png" width="666" height="484" /></g></g></g><g clip-path="url(#34)"><g transform="matrix(0.3268518 0 0 0.3272059 90 278.9)"><g transform="matrix(1 0 0 1 0 0)"><image x="0" y="0" xlink:href="img_27.png" width="54" height="68" /></g></g></g><g clip-path="url(#35)"><g transform="matrix(0.3271284 0 0 0.3276486 90 327.8)"><g transform="matrix(1 0 0 1 0 0)"><image x="0" y="0" xlink:href="img_28.png" width="693" height="387" /></g></g></g><g clip-path="url(#36)"><g transform="matrix(0.3263158 0 0 0.3288732 90 480.95)"><g transform="matrix(1 0 0 1 0 0)"><image x="0" y="0" xlink:href="img_29.png" width="57" height="71" /></g></g></g><g clip-path="url(#37)"><g transform="matrix(0.4502896 0 0 0.4503049 196.4 605.894)"><g transform="matrix(1 0 0 1 0 0)"><image x="0" y="0" xlink:href="img_30.png" width="518" height="328" /></g></g></g><path transform="matrix(1 0 0 -1 0 842)" d="M114.95 741.9L343.6 741.9L343.6 741.9L343.6 766.75L343.6 766.75L114.95 766.75z" stroke="none" fill="#FFC000" fill-rule="evenodd" /><path transform="matrix(1 0 0 -1 0 842)" d="M114.95 741.9L343.6 741.9L343.6 741.9L343.6 766.75L343.6 766.75L114.95 766.75z" stroke="#FFFFFF" stroke-width="1.5" fill="none" /><g clip-path="url(#38)"><g clip-path="url(#39)"></g><g clip-path="url(#40)"></g><g clip-path="url(#41)"></g><g clip-path="url(#42)"></g></g><path transform="matrix(1 0 0 -1 0 842)" d="M116.15 521.7L485.2 521.7L485.2 521.7L485.2 563.95L485.2 563.95L116.15 563.95z" stroke="none" fill="#70AD47" fill-rule="evenodd" /><path transform="matrix(1 0 0 -1 0 842)" d="M116.15 521.7L485.2 521.7L485.2 521.7L485.2 563.95L485.2 563.95L116.15 563.95z" stroke="#FFFFFF" stroke-width="1.5" fill="none" /><g clip-path="url(#43)"><g clip-path="url(#44)"></g><g clip-path="url(#45)"></g><g clip-path="url(#46)"></g><g clip-path="url(#47)"></g><g clip-path="url(#48)"></g></g><path transform="matrix(1 0 0 -1 0 842)" d="M114.2 338.85L302.5 338.85L302.5 338.85L302.5 363.7L302.5 363.7L114.2 363.7z" stroke="none" fill="#5B9BD5" fill-rule="evenodd" /><path transform="matrix(1 0 0 -1 0 842)" d="M114.2 338.85L302.5 338.85L302.5 338.85L302.5 363.7L302.5 363.7L114.2 363.7z" stroke="#FFFFFF" stroke-width="1.5" fill="none" /><g clip-path="url(#49)"><g clip-path="url(#50)"></g><g clip-path="url(#51)"></g></g><path transform="matrix(1 0 0 -1 0 842)" d="M304.15 52.905L310.15 52.905L310.15 52.905L310.15 85.905L310.15 85.905L322.15 85.905L322.15 85.905L322.15 52.905L322.15 52.905L328.15 52.905L328.15 52.905L316.15 40.905z" stroke="none" fill="#5B9BD5" fill-rule="evenodd" /><path transform="matrix(1 0 0 -1 0 842)" d="M304.15 52.905L310.15 52.905L310.15 52.905L310.15 85.905L310.15 85.905L322.15 85.905L322.15 85.905L322.15 52.905L322.15 52.905L328.15 52.905L328.15 52.905L316.15 40.905z" stroke="#41719C" stroke-width="1" fill="none" /></g></g></g></svg>